<?xml version="1.0" encoding="UTF-8"?>
<svg version="1.1" xmlns="http://www.w3.org/2000/svg" width="612" height="408">
<path d="M0 0 C0.62003906 0.41507813 1.24007812 0.83015625 1.87890625 1.2578125 C13.38965352 9.75066083 19.10023628 24.34286774 21.75 37.8125 C22.5750624 48.33204562 20.99506018 56.89790785 17.1875 66.75 C16.95144043 67.37592041 16.71538086 68.00184082 16.47216797 68.64672852 C14.62253137 73.22941932 12.37149906 76.46019745 9 80 C8.34 80 7.68 80 7 80 C6.74347656 80.58910156 6.48695313 81.17820312 6.22265625 81.78515625 C2.6912837 88.18224326 -5.23636623 93.50867676 -12 96 C-13.54945997 96.2171709 -15.10380911 96.4009271 -16.66040039 96.55908203 C-17.47255508 96.64336456 -18.28470978 96.72764709 -19.12147522 96.81448364 C-19.7413884 96.87570404 -20.36130157 96.93692444 -21 97 C-21.14861989 91.82231153 -21.25734045 86.64587099 -21.32958984 81.46655273 C-21.35971388 79.70591601 -21.40062296 77.94542878 -21.45263672 76.18530273 C-21.52565267 73.65050374 -21.55949741 71.11769201 -21.5859375 68.58203125 C-21.61690521 67.79850784 -21.64787292 67.01498444 -21.67977905 66.2077179 C-21.68305244 60.8598438 -21.68305244 60.8598438 -19.69464111 58.35678101 C-15.82439048 55 -15.82439048 55 -13 55 C-12.88785156 53.75283203 -12.88785156 53.75283203 -12.7734375 52.48046875 C-12.37820914 49.21402261 -11.92031889 46.16090833 -11 43 C-8.11003713 40.83252785 -6.58207667 40 -3 40 C-3.05939696 34.27395599 -3.05939696 34.27395599 -6.25 29.9375 C-9.42263205 28.85592089 -10.89624699 28.74172175 -14 30 C-16.02593687 32.48637707 -16.01703789 33.79554528 -15.75 37 C-15.15025164 39.9110343 -15.15025164 39.9110343 -13.9375 42 C-12.59436812 44.86534801 -12.61676474 46.8702454 -13 50 C-15.25182143 53.53857653 -17.23026658 55.29753975 -21 57 C-23.87375209 59.37134269 -23.98282548 59.84791191 -24.43237305 63.82885742 C-24.47380295 65.42074183 -24.49924492 67.01309417 -24.51171875 68.60546875 C-24.52966995 69.44467361 -24.54762115 70.28387848 -24.56611633 71.14851379 C-24.62028563 73.82812479 -24.65413573 76.50755702 -24.6875 79.1875 C-24.72066729 81.00458221 -24.7551564 82.8216408 -24.79101562 84.63867188 C-24.87601572 89.09231905 -24.94279502 93.54591259 -25 98 C-27.97 98.495 -27.97 98.495 -31 99 C-31.14494359 93.57810729 -31.28723076 88.15615308 -31.42724609 82.73413086 C-31.47505053 80.89654746 -31.52353245 79.05898154 -31.57275391 77.22143555 C-31.96469507 62.56363595 -32.28348739 47.90930561 -31.75 33.25 C-31.73582031 32.38890625 -31.72164062 31.5278125 -31.70703125 30.640625 C-31.46737288 24.50537067 -31.46737288 24.50537067 -29.078125 21.921875 C-27 21 -27 21 -25 21 C-25.24165926 16.81123944 -25.41418886 14.63330934 -28.3125 11.5 C-30.79665163 9.81223593 -30.79665163 9.81223593 -33.125 10.0625 C-35.39517019 11.1975851 -36.53026175 11.90037392 -38 14 C-38.73041853 17.61023099 -38.73041853 17.61023099 -39 21 C-38.34 21 -37.68 21 -37 21 C-35.39628601 22.05415344 -35.39628601 22.05415344 -34 24 C-33.63923645 27.17008972 -33.63923645 27.17008972 -33.65942383 31.13354492 C-33.65876671 32.21684837 -33.65876671 32.21684837 -33.65809631 33.32203674 C-33.66018586 35.70845605 -33.68352387 38.09417223 -33.70703125 40.48046875 C-33.71262664 42.13527543 -33.716897 43.79008708 -33.71989441 45.44490051 C-33.73134776 49.79993414 -33.76081902 54.15466751 -33.79400635 58.50958252 C-33.82469674 62.95361265 -33.83839753 67.39769131 -33.85351562 71.84179688 C-33.88568838 80.56133569 -33.93689048 89.28063049 -34 98 C-35.65 98 -37.3 98 -39 98 C-40.22754017 89.76229243 -40.32981769 81.51953842 -40.51757812 73.203125 C-40.55173828 72.0790625 -40.58589844 70.955 -40.62109375 69.796875 C-40.6461499 68.77948242 -40.67120605 67.76208984 -40.69702148 66.71386719 C-41.00271739 63.97565958 -41.4686606 62.2801647 -43 60 C-44.66128463 59.64080332 -46.32900023 59.31088368 -48 59 C-52.74509804 55.76470588 -52.74509804 55.76470588 -54 52 C-54.50833709 46.74718342 -54.50833709 46.74718342 -54 44 C-52.37446717 42.29319053 -50.70884005 40.62339805 -49 39 C-48.3232455 35.31544773 -48.50208229 33.75683492 -50.5625 30.625 C-53.81682503 28.45544998 -56.17130414 28.70548493 -60 29 C-60.64628298 32.35299291 -61.14728287 35.57976446 -61 39 C-59.34614767 40.34919532 -57.678298 41.68133728 -56 43 C-55.4582586 45.77371597 -55.31288326 48.42299646 -55.23828125 51.24609375 C-54.98139987 54.2149687 -54.34715361 56.34779132 -53 59 C-51.3523962 59.71247732 -49.68236471 60.37400383 -48 61 C-42.08167076 66.38029931 -42.08167076 66.38029931 -41.87060547 70.56616211 C-41.86891357 72.15569702 -41.86891357 72.15569702 -41.8671875 73.77734375 C-41.86525391 75.50694336 -41.86525391 75.50694336 -41.86328125 77.27148438 C-41.86714844 78.48126953 -41.87101562 79.69105469 -41.875 80.9375 C-41.86919922 82.74637695 -41.86919922 82.74637695 -41.86328125 84.59179688 C-41.86457031 85.74615234 -41.86585938 86.90050781 -41.8671875 88.08984375 C-41.86831543 89.15066162 -41.86944336 90.21147949 -41.87060547 91.30444336 C-42 94 -42 94 -43 97 C-54.49919729 96.81148857 -62.12488648 90.09182624 -70.41796875 82.69921875 C-72 81 -72 81 -72 79 C-72.66 79 -73.32 79 -74 79 C-75.294174 76.43873936 -76.58540784 73.87606642 -77.875 71.3125 C-78.23980469 70.59126953 -78.60460937 69.87003906 -78.98046875 69.12695312 C-83.91319833 59.30633697 -85.34999942 50.94998184 -85 40 C-84.98324219 39.18402344 -84.96648437 38.36804688 -84.94921875 37.52734375 C-84.56207198 30.54764048 -82.23539029 25.13637332 -79 19 C-78.20529297 17.45699219 -78.20529297 17.45699219 -77.39453125 15.8828125 C-73.78138977 9.25182974 -70.17707737 4.35787155 -64 0 C-63.02933594 -0.6909375 -62.05867188 -1.381875 -61.05859375 -2.09375 C-41.68012881 -14.96608772 -18.62371295 -13.94454381 0 0 Z " fill="#626EFC" transform="translate(178,154)"/>
<path d="M0 0 C1.45070503 0.95128198 2.8467005 1.9849862 4.23046875 3.03125 C4.62234375 2.5775 5.01421875 2.12375 5.41796875 1.65625 C8.57500446 -1.17419581 11.41549693 -1.89328965 15.60546875 -2.28125 C19.85474491 -1.91493309 22.54113864 -1.12666007 26.23046875 1.03125 C29.76451357 6.11687491 30.7224622 9.40465765 30.62109375 15.71484375 C30.61543396 16.41521255 30.60977417 17.11558136 30.60394287 17.83717346 C30.58176095 20.04842945 30.53160681 22.25799373 30.48046875 24.46875 C30.4603799 25.97849203 30.44213333 27.48825975 30.42578125 28.99804688 C30.38195822 32.67631999 30.31306216 36.35361956 30.23046875 40.03125 C28.41804823 40.05812279 26.60551642 40.07758715 24.79296875 40.09375 C23.78363281 40.10535156 22.77429688 40.11695313 21.734375 40.12890625 C19.23046875 40.03125 19.23046875 40.03125 18.23046875 39.03125 C18.0717292 36.81437006 17.97913038 34.59269702 17.9140625 32.37109375 C17.8932814 31.70662735 17.87250031 31.04216095 17.85108948 30.3575592 C17.78553217 28.22806457 17.7266809 26.09844332 17.66796875 23.96875 C17.62478936 22.52798153 17.58117526 21.08722601 17.53710938 19.64648438 C17.42984482 16.1082096 17.32859504 12.56979131 17.23046875 9.03125 C12.77546875 9.52625 12.77546875 9.52625 8.23046875 10.03125 C7.38759612 13.67318983 7.12343993 17.00013893 7.16796875 20.734375 C7.17957031 22.32765625 7.17957031 22.32765625 7.19140625 23.953125 C7.20429688 25.05140625 7.2171875 26.1496875 7.23046875 27.28125 C7.25584676 29.47391044 7.27692425 31.6666264 7.29296875 33.859375 C7.30457031 34.8277832 7.31617188 35.79619141 7.328125 36.79394531 C7.23046875 39.03125 7.23046875 39.03125 6.23046875 40.03125 C4.56617824 40.12948937 2.89764944 40.16098631 1.23046875 40.15625 C-0.13078125 40.16011719 -0.13078125 40.16011719 -1.51953125 40.1640625 C-3.76953125 40.03125 -3.76953125 40.03125 -4.76953125 39.03125 C-4.92811967 36.88738343 -5.02082423 34.73858162 -5.0859375 32.58984375 C-5.12783203 31.28466797 -5.16972656 29.97949219 -5.21289062 28.63476562 C-5.25270733 27.2460967 -5.2924195 25.85742478 -5.33203125 24.46875 C-5.37521114 23.07615817 -5.41882525 21.68357972 -5.46289062 20.29101562 C-5.56939001 16.87120199 -5.67140048 13.45131237 -5.76953125 10.03125 C-8.73953125 10.03125 -11.70953125 10.03125 -14.76953125 10.03125 C-16.1651317 12.82245091 -15.98761413 15.23330692 -16.0859375 18.3515625 C-16.12783203 19.60839844 -16.16972656 20.86523438 -16.21289062 22.16015625 C-16.25220703 23.47886719 -16.29152344 24.79757813 -16.33203125 26.15625 C-16.37522637 27.49610751 -16.41884098 28.83595156 -16.46289062 30.17578125 C-16.56924106 33.46082815 -16.67126933 36.74595281 -16.76953125 40.03125 C-20.39953125 40.03125 -24.02953125 40.03125 -27.76953125 40.03125 C-27.76953125 26.50125 -27.76953125 12.97125 -27.76953125 -0.96875 C-24.46953125 -0.96875 -21.16953125 -0.96875 -17.76953125 -0.96875 C-17.43953125 -0.30875 -17.10953125 0.35125 -16.76953125 1.03125 C-15.59390625 0.515625 -14.41828125 0 -13.20703125 -0.53125 C-8.49397898 -2.27682491 -4.56494114 -2.49912893 0 0 Z " fill="#1C2026" transform="translate(298.76953125,185.96875)"/>
<path d="M0 0 C3.7465347 2.60988353 6.20756902 5.48813249 7.65234375 9.84765625 C7.76171875 12.59375 7.76171875 12.59375 7.65234375 14.84765625 C3.94507455 15.13089413 0.34949374 15.30294327 -3.34765625 14.84765625 C-5.28515625 12.47265625 -5.28515625 12.47265625 -6.34765625 9.84765625 C-10.4912532 7.21164251 -14.58759011 7.19479996 -19.34765625 7.84765625 C-23.31755743 9.68557346 -24.94297987 11.18668482 -27.22265625 14.91015625 C-29.3599496 20.8258789 -29.3599496 27.8694336 -27.22265625 33.78515625 C-24.97822068 37.45106768 -23.21928737 38.98629513 -19.34765625 40.84765625 C-13.96809485 41.5323277 -10.02169482 40.5970907 -5.34765625 37.84765625 C-4.68765625 35.86765625 -4.02765625 33.88765625 -3.34765625 31.84765625 C-7.63765625 31.84765625 -11.92765625 31.84765625 -16.34765625 31.84765625 C-16.34765625 28.87765625 -16.34765625 25.90765625 -16.34765625 22.84765625 C-11.39281442 21.46276257 -6.60176477 21.9564501 -1.53515625 22.28515625 C-0.65150391 22.33736328 0.23214844 22.38957031 1.14257812 22.44335938 C3.31284783 22.57240244 5.48265068 22.70925581 7.65234375 22.84765625 C8.68527663 37.53825721 8.68527663 37.53825721 5.02734375 42.47265625 C3.35546875 44.26953125 3.35546875 44.26953125 1.65234375 45.84765625 C1.1728125 46.3478125 0.69328125 46.84796875 0.19921875 47.36328125 C-4.3476538 51.71029127 -9.17872106 52.735252 -15.2109375 52.94921875 C-23.98561636 52.65933101 -29.41920458 49.99065613 -35.421875 43.66015625 C-38.84648086 39.54785063 -41.23772135 36.34440132 -41.34765625 30.84765625 C-41.38375 30.02394531 -41.41984375 29.20023438 -41.45703125 28.3515625 C-41.70957533 19.24734824 -40.6750038 11.39473195 -35.34765625 3.84765625 C-24.3914513 -5.28251454 -12.3928439 -6.74668336 0 0 Z " fill="#1C2026" transform="translate(432.34765625,174.15234375)"/>
<path d="M0 0 C9.80989656 -0.60889013 9.80989656 -0.60889013 13.6875 1.375 C15.73428103 5.46856205 15.3084768 9.50994883 15 14 C15.66 14 16.32 14 17 14 C17 14.66 17 15.32 17 16 C19.64 16 22.28 16 25 16 C25 16.33 25 16.66 25 17 C25.60328125 17.09796875 26.2065625 17.1959375 26.828125 17.296875 C30.41445084 17.967865 33.39654847 18.64676008 36.5625 20.5 C38.80827412 24.40569412 38.81426238 28.60591745 38 33 C36.640625 34.796875 36.640625 34.796875 35 36 C32.3125 36.1875 32.3125 36.1875 30 36 C30.02320313 36.60328125 30.04640625 37.2065625 30.0703125 37.828125 C30.08835938 38.62734375 30.10640625 39.4265625 30.125 40.25 C30.14820313 41.03890625 30.17140625 41.8278125 30.1953125 42.640625 C29.9828378 45.20731941 29.28654105 46.7916067 28 49 C27.34 49 26.68 49 26 49 C26.33 49.99 26.66 50.98 27 52 C23.25 53.125 23.25 53.125 21 52 C20.67 63.22 20.34 74.44 20 86 C21.98 86 23.96 86 26 86 C24.8125 87.5 24.8125 87.5 23 89 C20.38671875 89.09375 20.38671875 89.09375 18 89 C17.85138011 83.82231153 17.74265955 78.64587099 17.67041016 73.46655273 C17.64028612 71.70591601 17.59937704 69.94542878 17.54736328 68.18530273 C17.47434733 65.65050374 17.44050259 63.11769201 17.4140625 60.58203125 C17.38309479 59.79850784 17.35212708 59.01498444 17.32022095 58.2077179 C17.31694756 52.8598438 17.31694756 52.8598438 19.30535889 50.35678101 C23.17560952 47 23.17560952 47 26 47 C26.07476562 46.16855469 26.14953125 45.33710938 26.2265625 44.48046875 C26.62179086 41.21402261 27.07968111 38.16090833 28 35 C30.88996287 32.83252785 32.41792333 32 36 32 C35.94060304 26.27395599 35.94060304 26.27395599 32.75 21.9375 C29.57736795 20.85592089 28.10375301 20.74172175 25 22 C22.97406313 24.48637707 22.98296211 25.79554528 23.25 29 C23.84974836 31.9110343 23.84974836 31.9110343 25.0625 34 C26.40563188 36.86534801 26.38323526 38.8702454 26 42 C23.74817857 45.53857653 21.76973342 47.29753975 18 49 C15.12624791 51.37134269 15.01717452 51.84791191 14.56762695 55.82885742 C14.52619705 57.42074183 14.50075508 59.01309417 14.48828125 60.60546875 C14.47033005 61.44467361 14.45237885 62.28387848 14.43388367 63.14851379 C14.37971437 65.82812479 14.34586427 68.50755702 14.3125 71.1875 C14.27933271 73.00458221 14.2448436 74.8216408 14.20898438 76.63867188 C14.12398428 81.09231905 14.05720498 85.54591259 14 90 C11.03 90.495 11.03 90.495 8 91 C7.85505641 85.57810729 7.71276924 80.15615308 7.57275391 74.73413086 C7.52494947 72.89654746 7.47646755 71.05898154 7.42724609 69.22143555 C7.03530493 54.56363595 6.71651261 39.90930561 7.25 25.25 C7.26417969 24.38890625 7.27835938 23.5278125 7.29296875 22.640625 C7.53262712 16.50537067 7.53262712 16.50537067 9.921875 13.921875 C12 13 12 13 14 13 C13.75834074 8.81123944 13.58581114 6.63330934 10.6875 3.5 C8.20334837 1.81223593 8.20334837 1.81223593 5.875 2.0625 C3.60482981 3.1975851 2.46973825 3.90037392 1 6 C0.26958147 9.61023099 0.26958147 9.61023099 0 13 C0.66 13 1.32 13 2 13 C3.60371399 14.05415344 3.60371399 14.05415344 5 16 C5.36076355 19.17008972 5.36076355 19.17008972 5.34057617 23.13354492 C5.34123329 24.21684837 5.34123329 24.21684837 5.34190369 25.32203674 C5.33981414 27.70845605 5.31647613 30.09417223 5.29296875 32.48046875 C5.28737336 34.13527543 5.283103 35.79008708 5.28010559 37.44490051 C5.26865224 41.79993414 5.23918098 46.15466751 5.20599365 50.50958252 C5.17530326 54.95361265 5.16160247 59.39769131 5.14648438 63.84179688 C5.11431162 72.56133569 5.06310952 81.28063049 5 90 C3.35 90 1.7 90 0 90 C-1.22754017 81.76229243 -1.32981769 73.51953842 -1.51757812 65.203125 C-1.55173828 64.0790625 -1.58589844 62.955 -1.62109375 61.796875 C-1.6461499 60.77948242 -1.67120605 59.76208984 -1.69702148 58.71386719 C-2.00271739 55.97565958 -2.4686606 54.2801647 -4 52 C-5.66128463 51.64080332 -7.32900023 51.31088368 -9 51 C-13.74509804 47.76470588 -13.74509804 47.76470588 -15 44 C-15.50612245 38.77006803 -15.50612245 38.77006803 -15 36 C-12.5625 33.3125 -12.5625 33.3125 -10 31 C-9.12761142 28.32209104 -9.12761142 28.32209104 -9 26 C-7 29 -7 29 -7.125 32.0625 C-8 35 -8 35 -10.0625 36.375 C-10.701875 36.58125 -11.34125 36.7875 -12 37 C-12.43702768 41.45768233 -12.51445113 43.34650802 -9.6875 46.9375 C-7.16796326 49.30440939 -7.16796326 49.30440939 -4 49 C-2.65210653 48.01971384 -1.31787285 47.02028865 0 46 C0.66 46 1.32 46 2 46 C2 37.09 2 28.18 2 19 C1.34 19 0.68 19 0 19 C-2.33986506 14.46651144 -2.58179007 9.99654999 -2 5 C-1.38427123 3.31385045 -0.72796858 1.64081808 0 0 Z " fill="#656AF8" transform="translate(139,162)"/>
<path d="M0 0 C0.99 0.66 1.98 1.32 3 2 C3 2.66 3 3.32 3 4 C3.99 4.33 4.98 4.66 6 5 C11.97165128 11.9641229 11.8636193 20.86990697 11.4921875 29.54296875 C11.04976464 34.94524383 9.42959255 38.80717443 6 43 C5.38125 43.928125 4.7625 44.85625 4.125 45.8125 C-0.50559324 50.57928716 -5.04031102 52.49538013 -11.55981445 52.65771484 C-12.7058313 52.641521 -12.7058313 52.641521 -13.875 52.625 C-14.6693042 52.61807129 -15.4636084 52.61114258 -16.28198242 52.60400391 C-22.8958798 52.35821489 -27.25940422 50.76244184 -32 46 C-32.77730469 45.28070313 -32.77730469 45.28070313 -33.5703125 44.546875 C-39.62598928 38.24897114 -39.33399673 30.05514391 -39.30493164 21.86816406 C-39.17318191 16.49983539 -38.46016834 12.74461037 -36 8 C-35.505 6.948125 -35.01 5.89625 -34.5 4.8125 C-25.24409041 -5.60039829 -11.62836388 -5.65927478 0 0 Z M-25.3125 13.625 C-29.26446519 19.18702508 -28.65692314 25.37910044 -28 32 C-26.48089907 35.88915052 -24.2641017 38.21420705 -20.6875 40.4375 C-14.26313074 41.78213543 -9.56605414 41.62440734 -4 38 C0.24569893 33.46149425 0.28902257 28.49954094 0.21875 22.53515625 C-0.19102451 17.78616236 -1.85530182 14.41179442 -4.875 10.6875 C-7.923556 8.26658788 -10.60417906 7.21474168 -14.4375 6.625 C-19.20101149 7.32209924 -22.20811354 10.10110186 -25.3125 13.625 Z " fill="#20252C" transform="translate(256,174)"/>
<path d="M0 0 C4.24727558 3.47504366 6.36849954 6.76202485 8 12 C8 15.3 8 18.6 8 22 C-0.91 22 -9.82 22 -19 22 C-15.86824314 27.77260299 -15.86824314 27.77260299 -13 29 C-10.04195427 29.33340471 -10.04195427 29.33340471 -7 29 C-6.55914062 28.50371094 -6.11828125 28.00742188 -5.6640625 27.49609375 C-3.26126662 25.3358336 -1.47908626 25.70073813 1.6875 25.8125 C3.17830078 25.85310547 3.17830078 25.85310547 4.69921875 25.89453125 C5.45847656 25.92933594 6.21773438 25.96414062 7 26 C5.52307692 32.64615385 5.52307692 32.64615385 2.875 34.4375 C2.25625 34.623125 1.6375 34.80875 1 35 C1 35.66 1 36.32 1 37 C-4.5533195 40.51475918 -11.69995324 39.5261281 -18 39 C-21.76230395 38.03185012 -24.04098663 36.42219011 -26.26171875 33.12890625 C-29.82433541 26.51618971 -31.23600642 19.67532864 -29.28125 12.28125 C-27.45342574 6.79777721 -25.78908501 2.53480084 -21 -1 C-13.68984412 -4.41140608 -6.94159508 -3.79823127 0 0 Z M-18 10 C-18 10.99 -18 11.98 -18 13 C-13.38 13 -8.76 13 -4 13 C-4.62841973 9.0285831 -4.62841973 9.0285831 -7 7 C-11.62130947 6.57210097 -14.72836473 6.46663391 -18 10 Z " fill="#282B32" transform="translate(474,187)"/>
<path d="M0 0 C3.45250644 2.22494859 6.03560088 4.57579002 7.41186523 8.53808594 C7.95768383 11.63671239 7.92348644 14.61970063 7.91015625 17.765625 C7.9087413 18.42584656 7.90732635 19.08606812 7.90586853 19.76629639 C7.90029245 21.86507794 7.88774447 23.96375095 7.875 26.0625 C7.8699819 27.48958179 7.86541954 28.91666525 7.86132812 30.34375 C7.85033088 33.83336832 7.8330828 37.32292356 7.8125 40.8125 C4.1825 40.8125 0.5525 40.8125 -3.1875 40.8125 C-4.48185911 38.22378177 -4.26847298 36.40186676 -4.21484375 33.5078125 C-4.19647461 31.92033203 -4.19647461 31.92033203 -4.17773438 30.30078125 C-4.14269957 28.06633947 -4.10366495 25.83195667 -4.06054688 23.59765625 C-4.04958984 22.53675781 -4.03863281 21.47585937 -4.02734375 20.3828125 C-4.01050537 19.41102051 -3.99366699 18.43922852 -3.97631836 17.43798828 C-4.05093547 14.46219227 -4.05093547 14.46219227 -6.1875 10.8125 C-9.1575 10.8125 -12.1275 10.8125 -15.1875 10.8125 C-16.58310045 13.60370091 -16.40558288 16.01455692 -16.50390625 19.1328125 C-16.54580078 20.38964844 -16.58769531 21.64648438 -16.63085938 22.94140625 C-16.67017578 24.26011719 -16.70949219 25.57882813 -16.75 26.9375 C-16.79319512 28.27735751 -16.83680973 29.61720156 -16.88085938 30.95703125 C-16.98720981 34.24207815 -17.08923808 37.52720281 -17.1875 40.8125 C-18.99992052 40.83937279 -20.81245233 40.85883715 -22.625 40.875 C-23.63433594 40.88660156 -24.64367187 40.89820313 -25.68359375 40.91015625 C-28.1875 40.8125 -28.1875 40.8125 -29.1875 39.8125 C-29.28853703 37.19297204 -29.32720222 34.60039606 -29.3203125 31.98046875 C-29.32126923 31.19231277 -29.32222595 30.4041568 -29.32321167 29.59211731 C-29.32389367 27.92005331 -29.32203802 26.24798668 -29.31787109 24.57592773 C-29.31254433 22.02126055 -29.31780434 19.4667709 -29.32421875 16.91210938 C-29.32355755 15.28906211 -29.32227553 13.66601496 -29.3203125 12.04296875 C-29.32233673 11.27929489 -29.32436096 10.51562103 -29.32644653 9.72880554 C-29.3108604 6.18246233 -29.05451229 3.28054916 -28.1875 -0.1875 C-24.8875 -0.1875 -21.5875 -0.1875 -18.1875 -0.1875 C-17.8575 0.4725 -17.5275 1.1325 -17.1875 1.8125 C-16.176875 1.3175 -15.16625 0.8225 -14.125 0.3125 C-9.14805575 -1.79467398 -5.10891133 -1.90331991 0 0 Z " fill="#23272D" transform="translate(362.1875,185.1875)"/>
<path d="M0 0 C3.9956006 2.77954824 6.13185572 5.4240405 7.875 10 C8.47861765 15.3517828 8.34909772 20.62519885 8.1875 26 C8.16237943 27.45699288 8.1395729 28.91402759 8.11914062 30.37109375 C8.06445637 33.91494197 7.97839531 37.45719932 7.875 41 C4.245 41 0.615 41 -3.125 41 C-3.15005615 40.16227051 -3.1751123 39.32454102 -3.20092773 38.46142578 C-3.29600357 35.35647744 -3.39524025 32.25169819 -3.49731445 29.14697266 C-3.56198251 27.14105193 -3.62183106 25.13497772 -3.68164062 23.12890625 C-3.72353516 21.87207031 -3.76542969 20.61523438 -3.80859375 19.3203125 C-3.84525146 18.15773926 -3.88190918 16.99516602 -3.91967773 15.79736328 C-3.94321659 13.0464499 -3.94321659 13.0464499 -5.125 11 C-7.48099235 10.53248212 -7.48099235 10.53248212 -10.1875 10.375 C-11.10660156 10.30023438 -12.02570313 10.22546875 -12.97265625 10.1484375 C-13.68292969 10.09945312 -14.39320313 10.05046875 -15.125 10 C-16.2257076 13.3021228 -16.33127072 15.94083279 -16.44140625 19.41796875 C-16.48330078 20.67158203 -16.52519531 21.92519531 -16.56835938 23.21679688 C-16.60767578 24.52712891 -16.64699219 25.83746094 -16.6875 27.1875 C-16.73070992 28.52279978 -16.774325 29.85808652 -16.81835938 31.19335938 C-16.92456502 34.46213297 -17.02660997 37.73098333 -17.125 41 C-20.425 41 -23.725 41 -27.125 41 C-28.79380615 37.66238769 -28.12128371 33.93240477 -28.00390625 30.2734375 C-27.98029526 29.41062164 -27.95668427 28.54780579 -27.93235779 27.65884399 C-27.85565703 24.89739794 -27.77166038 22.13622782 -27.6875 19.375 C-27.63428573 17.50522193 -27.58154529 15.63543031 -27.52929688 13.765625 C-27.40003321 9.17690791 -27.26422496 4.58842523 -27.125 0 C-24.155 0 -21.185 0 -18.125 0 C-17.795 0.66 -17.465 1.32 -17.125 2 C-16.114375 1.505 -15.10375 1.01 -14.0625 0.5 C-9.14068939 -1.5838311 -5.11624607 -1.63719874 0 0 Z " fill="#54575B" transform="translate(513.125,185)"/>
<path d="M0 0 C0.9583374 0.04713135 1.9166748 0.0942627 2.90405273 0.14282227 C3.93852539 0.19116211 4.97299805 0.23950195 6.03881836 0.28930664 C7.12743164 0.34538086 8.21604492 0.40145508 9.33764648 0.45922852 C10.43012695 0.51143555 11.52260742 0.56364258 12.64819336 0.61743164 C15.35743724 0.74756999 18.06635442 0.88254906 20.77514648 1.02172852 C21.80807936 15.71232947 21.80807936 15.71232947 18.15014648 20.64672852 C16.47827148 22.44360352 16.47827148 22.44360352 14.77514648 24.02172852 C14.05584961 24.77196289 14.05584961 24.77196289 13.32202148 25.53735352 C9.67868532 29.02054304 5.71883712 30.59751744 0.77514648 31.02172852 C-3.25281312 30.88317462 -7.22582194 30.51494241 -11.22485352 30.02172852 C-12.53708848 26.08502363 -11.46781607 23.89684708 -10.22485352 20.02172852 C-9.51200195 19.9843457 -8.79915039 19.94696289 -8.06469727 19.90844727 C-2.20676671 19.50635513 2.72280486 19.13913079 7.77514648 16.02172852 C8.43514648 14.04172852 9.09514648 12.06172852 9.77514648 10.02172852 C5.48514648 10.02172852 1.19514648 10.02172852 -3.22485352 10.02172852 C-3.32250977 3.08813477 -3.32250977 3.08813477 -3.22485352 1.02172852 C-2.22485352 0.02172852 -2.22485352 0.02172852 0 0 Z " fill="#272A31" transform="translate(419.224853515625,195.978271484375)"/>
<path d="M0 0 C9.80989656 -0.60889013 9.80989656 -0.60889013 13.6875 1.375 C15.7160713 5.4321426 15.63904492 9.54897782 15 14 C14.01 15.485 14.01 15.485 13 17 C12.34 17 11.68 17 11 17 C10.67 17.99 10.34 18.98 10 20 C9.34 20 8.68 20 8 20 C8 18.68 8 17.36 8 16 C11.21428571 13 11.21428571 13 14 13 C13.75834074 8.81123944 13.58581114 6.63330934 10.6875 3.5 C8.20334837 1.81223593 8.20334837 1.81223593 5.875 2.0625 C3.60482981 3.1975851 2.46973825 3.90037392 1 6 C0.26958147 9.61023099 0.26958147 9.61023099 0 13 C0.66 13 1.32 13 2 13 C3.60371399 14.05415344 3.60371399 14.05415344 5 16 C5.36076355 19.17008972 5.36076355 19.17008972 5.34057617 23.13354492 C5.34123329 24.21684837 5.34123329 24.21684837 5.34190369 25.32203674 C5.33981414 27.70845605 5.31647613 30.09417223 5.29296875 32.48046875 C5.28737336 34.13527543 5.283103 35.79008708 5.28010559 37.44490051 C5.26865224 41.79993414 5.23918098 46.15466751 5.20599365 50.50958252 C5.17530326 54.95361265 5.16160247 59.39769131 5.14648438 63.84179688 C5.11431162 72.56133569 5.06310952 81.28063049 5 90 C3.35 90 1.7 90 0 90 C-1.22754017 81.76229243 -1.32981769 73.51953842 -1.51757812 65.203125 C-1.55173828 64.0790625 -1.58589844 62.955 -1.62109375 61.796875 C-1.6461499 60.77948242 -1.67120605 59.76208984 -1.69702148 58.71386719 C-2.00271739 55.97565958 -2.4686606 54.2801647 -4 52 C-5.66128463 51.64080332 -7.32900023 51.31088368 -9 51 C-13.74509804 47.76470588 -13.74509804 47.76470588 -15 44 C-15.50612245 38.77006803 -15.50612245 38.77006803 -15 36 C-12.5625 33.3125 -12.5625 33.3125 -10 31 C-9.12761142 28.32209104 -9.12761142 28.32209104 -9 26 C-7 29 -7 29 -7.125 32.0625 C-8 35 -8 35 -10.0625 36.375 C-10.701875 36.58125 -11.34125 36.7875 -12 37 C-12.43702768 41.45768233 -12.51445113 43.34650802 -9.6875 46.9375 C-7.16796326 49.30440939 -7.16796326 49.30440939 -4 49 C-2.65210653 48.01971384 -1.31787285 47.02028865 0 46 C0.66 46 1.32 46 2 46 C2 37.09 2 28.18 2 19 C1.34 19 0.68 19 0 19 C-2.33986506 14.46651144 -2.58179007 9.99654999 -2 5 C-1.38427123 3.31385045 -0.72796858 1.64081808 0 0 Z " fill="#767DE3" transform="translate(139,162)"/>
<path d="M0 0 C3.6980849 1.64359329 5.90434646 3.54217166 8 7 C9.22630858 10.63234381 9.11379233 14.14500924 9.09765625 17.953125 C9.0962413 18.61334656 9.09482635 19.27356812 9.09336853 19.95379639 C9.08779245 22.05257794 9.07524447 24.15125095 9.0625 26.25 C9.0574819 27.67708179 9.05291954 29.10416525 9.04882812 30.53125 C9.03783088 34.02086832 9.0205828 37.51042356 9 41 C5.37 41 1.74 41 -2 41 C-3.29435911 38.41128177 -3.08097298 36.58936676 -3.02734375 33.6953125 C-3.01509766 32.63699219 -3.00285156 31.57867187 -2.99023438 30.48828125 C-2.95519957 28.25383947 -2.91616495 26.01945667 -2.87304688 23.78515625 C-2.86208984 22.72425781 -2.85113281 21.66335937 -2.83984375 20.5703125 C-2.82300537 19.59852051 -2.80616699 18.62672852 -2.78881836 17.62548828 C-3.00944957 14.88251941 -3.48996836 13.28617939 -5 11 C-7.17208588 10.08839907 -7.17208588 10.08839907 -9.625 9.75 C-10.44226563 9.60046875 -11.25953125 9.4509375 -12.1015625 9.296875 C-12.72804688 9.19890625 -13.35453125 9.1009375 -14 9 C-13.01 8.01 -12.02 7.02 -11 6 C-11.33 5.01 -11.66 4.02 -12 3 C-8.46933529 -0.53066471 -4.7426384 -0.69911403 0 0 Z " fill="#24282D" transform="translate(361,185)"/>
<path d="M0 0 C2.162776 1.21334818 4.23807735 2.47294931 6.27734375 3.8828125 C6.27734375 4.5428125 6.27734375 5.2028125 6.27734375 5.8828125 C7.26734375 6.2128125 8.25734375 6.5428125 9.27734375 6.8828125 C15.15937412 14.33890734 15.04343507 22.85387912 14.27734375 31.8828125 C13.94734375 32.8728125 13.61734375 33.8628125 13.27734375 34.8828125 C11.95734375 34.2228125 10.63734375 33.5628125 9.27734375 32.8828125 C9.60734375 32.5528125 9.93734375 32.2228125 10.27734375 31.8828125 C9.61734375 31.5528125 8.95734375 31.2228125 8.27734375 30.8828125 C8.27734375 30.2228125 8.27734375 29.5628125 8.27734375 28.8828125 C7.61734375 28.8828125 6.95734375 28.8828125 6.27734375 28.8828125 C5.61734375 30.2028125 4.95734375 31.5228125 4.27734375 32.8828125 C4.27734375 29.2528125 4.27734375 25.6228125 4.27734375 21.8828125 C3.61734375 21.8828125 2.95734375 21.8828125 2.27734375 21.8828125 C-0.59765625 15.2578125 -0.59765625 15.2578125 -1.72265625 11.8828125 C-6.93992801 9.92633559 -12.19497762 9.35912041 -17.72265625 8.8828125 C-17.39265625 8.2228125 -17.06265625 7.5628125 -16.72265625 6.8828125 C-16.06265625 7.2128125 -15.40265625 7.5428125 -14.72265625 7.8828125 C-15.05265625 7.2228125 -15.38265625 6.5628125 -15.72265625 5.8828125 C-16.71265625 5.8828125 -17.70265625 5.8828125 -18.72265625 5.8828125 C-18.21661633 3.71406998 -17.72281812 1.88313623 -16.72265625 -0.1171875 C-11.26375453 -1.93682141 -5.37532602 -2.20565745 0 0 Z M-24.72265625 6.8828125 C-22.74265625 7.3778125 -22.74265625 7.3778125 -20.72265625 7.8828125 C-21.05265625 8.8728125 -21.38265625 9.8628125 -21.72265625 10.8828125 C-23.04265625 10.5528125 -24.36265625 10.2228125 -25.72265625 9.8828125 C-25.39265625 8.8928125 -25.06265625 7.9028125 -24.72265625 6.8828125 Z " fill="#2A2F36" transform="translate(252.72265625,172.1171875)"/>
<path d="M0 0 C3.3 0 6.6 0 10 0 C11.63483632 3.26967263 11.14170489 6.88033115 11.1328125 10.47265625 C11.13376923 11.31090439 11.13472595 12.14915253 11.13571167 13.01280212 C11.1363926 14.78563512 11.13454434 16.55847061 11.13037109 18.33129883 C11.12501493 21.05490677 11.13032243 23.77835029 11.13671875 26.50195312 C11.13605808 28.22135453 11.13477716 29.94075584 11.1328125 31.66015625 C11.13483673 32.47992447 11.13686096 33.29969269 11.13894653 34.14430237 C11.11495507 39.88504493 11.11495507 39.88504493 10 41 C8.31391034 41.07205511 6.62499341 41.08386068 4.9375 41.0625 C4.01839844 41.05347656 3.09929687 41.04445312 2.15234375 41.03515625 C1.44207031 41.02355469 0.73179687 41.01195312 0 41 C-1.14843858 36.52611636 -1.04131966 32.21233628 -0.87890625 27.63671875 C-0.84348976 26.44874443 -0.84348976 26.44874443 -0.80735779 25.23677063 C-0.73110306 22.72014719 -0.64691584 20.20386159 -0.5625 17.6875 C-0.50924101 15.9759277 -0.4565009 14.26433917 -0.40429688 12.55273438 C-0.27553999 8.36827776 -0.13967078 4.18410597 0 0 Z " fill="#1D2228" transform="translate(376,185)"/>
<path d="M0 0 C0 0.66 0 1.32 0 2 C-1.05058594 2.09796875 -2.10117188 2.1959375 -3.18359375 2.296875 C-13.56376077 3.35543829 -13.56376077 3.35543829 -23.203125 7.1953125 C-25 8 -25 8 -29 8 C-30.16228962 10.24155855 -31.06770803 12.24262043 -31.75 14.6875 C-32.1625 15.450625 -32.575 16.21375 -33 17 C-36.0625 17.6875 -36.0625 17.6875 -39 18 C-40.15392455 20.3078491 -40.53437166 22.47230331 -41 25 C-42.98 25 -44.96 25 -47 25 C-47 25.66 -47 26.32 -47 27 C-47.33 27.33 -47.66 27.66 -48 28 C-47.67 28.66 -47.34 29.32 -47 30 C-47.24868919 33.45204282 -47.867231 36.72816721 -49 40 C-51.5 41.625 -51.5 41.625 -54 43 C-56.04785793 49.03579179 -56.09035076 54.08828228 -55.5 60.375 C-55.23608619 63.26879177 -55.07084514 66.08944551 -55 69 C-55.99 69.99 -55.99 69.99 -57 71 C-58.61482429 64.22350522 -59.32662668 57.95714831 -59 51 C-58.97292969 49.77990234 -58.97292969 49.77990234 -58.9453125 48.53515625 C-58.57022937 41.55199097 -56.23596333 36.13746018 -53 30 C-52.20529297 28.45699219 -52.20529297 28.45699219 -51.39453125 26.8828125 C-47.78138977 20.25182974 -44.17707737 15.35787155 -38 11 C-37.02933594 10.3090625 -36.05867188 9.618125 -35.05859375 8.90625 C-23.83182796 1.44875936 -13.34222678 -0.6490813 0 0 Z " fill="#498CEE" transform="translate(152,143)"/>
<path d="M0 0 C1.8871875 0.0309375 1.8871875 0.0309375 3.8125 0.0625 C3.8125 0.3925 3.8125 0.7225 3.8125 1.0625 C1.5025 1.3925 -0.8075 1.7225 -3.1875 2.0625 C-3.1875 2.7225 -3.1875 3.3825 -3.1875 4.0625 C-3.826875 4.165625 -4.46625 4.26875 -5.125 4.375 C-6.1459375 4.7153125 -6.1459375 4.7153125 -7.1875 5.0625 C-7.5175 6.0525 -7.8475 7.0425 -8.1875 8.0625 C-6.8675 7.7325 -5.5475 7.4025 -4.1875 7.0625 C-4.1875 8.0525 -4.1875 9.0425 -4.1875 10.0625 C-5.1775 10.3925 -6.1675 10.7225 -7.1875 11.0625 C-5.8675 11.3925 -4.5475 11.7225 -3.1875 12.0625 C-4.095 12.59875 -5.0025 13.135 -5.9375 13.6875 C-9.41409152 16.07919771 -11.34166825 18.16574409 -13.1875 22.0625 C-13.80150405 26.39148652 -14.05787719 30.69421136 -14.1875 35.0625 C-14.5175 35.0625 -14.8475 35.0625 -15.1875 35.0625 C-15.5175 33.7425 -15.8475 32.4225 -16.1875 31.0625 C-19.15806503 30.72463769 -19.15806503 30.72463769 -20.6875 32.4375 C-21.1825 32.97375 -21.6775 33.51 -22.1875 34.0625 C-23.1775 34.7225 -24.1675 35.3825 -25.1875 36.0625 C-25.74885344 18.9308245 -25.74885344 18.9308245 -22.1875 12.0625 C-21.6925 11.010625 -21.1975 9.95875 -20.6875 8.875 C-15.85304138 3.43623406 -7.305277 -0.11975864 0 0 Z M-14.1875 9.0625 C-14.5175 10.0525 -14.8475 11.0425 -15.1875 12.0625 C-13.8675 12.3925 -12.5475 12.7225 -11.1875 13.0625 C-10.8575 12.0725 -10.5275 11.0825 -10.1875 10.0625 C-11.5075 9.7325 -12.8275 9.4025 -14.1875 9.0625 Z " fill="#282C33" transform="translate(242.1875,169.9375)"/>
<path d="M0 0 C0.66 0 1.32 0 2 0 C6.91744279 15.37087463 7.00662672 27.69296348 1.1875 42.75 C0.95144043 43.37592041 0.71538086 44.00184082 0.47216797 44.64672852 C-1.37746863 49.22941932 -3.62850094 52.46019745 -7 56 C-7.66 56 -8.32 56 -9 56 C-9.25265625 56.58652344 -9.5053125 57.17304688 -9.765625 57.77734375 C-12.89672353 63.41530281 -19.10992322 67.67136499 -25 70 C-25.99 70 -26.98 70 -28 70 C-28 69.34 -28 68.68 -28 68 C-27.34 68 -26.68 68 -26 68 C-25.34 66.02 -24.68 64.04 -24 62 C-21.69 62.33 -19.38 62.66 -17 63 C-17.33 60.69 -17.66 58.38 -18 56 C-12.25 54 -12.25 54 -10 54 C-10 51.69 -10 49.38 -10 47 C-9.401875 46.855625 -8.80375 46.71125 -8.1875 46.5625 C-6.43849596 46.1127561 -4.71322977 45.57107659 -3 45 C-3 42.69 -3 40.38 -3 38 C-2.01 37.505 -2.01 37.505 -1 37 C-1.04125 35.948125 -1.0825 34.89625 -1.125 33.8125 C-1 30 -1 30 0.125 27.375 C1.31191552 24.97824072 1.31191552 24.97824072 0 22.5625 C-1.37693306 19.03410904 -0.25051866 17.55410568 1 14 C1.46981559 10.34251091 1.75127096 6.67857152 2 3 C1.34 3 0.68 3 0 3 C0 2.01 0 1.02 0 0 Z " fill="#875EDE" transform="translate(194,178)"/>
<path d="M0 0 C3 3.75 3 3.75 3 6 C3.66 6 4.32 6 5 6 C5 15.9 5 25.8 5 36 C1.7 36 -1.6 36 -5 36 C-5.04954711 31.94323508 -5.085789 27.88658806 -5.10986328 23.82958984 C-5.11990253 22.45032685 -5.13353677 21.07108504 -5.15087891 19.69189453 C-5.17521754 17.7061486 -5.18543255 15.7202455 -5.1953125 13.734375 C-5.20578613 12.54038086 -5.21625977 11.34638672 -5.22705078 10.11621094 C-5.01034762 7.14201836 -4.56186122 5.49681621 -3 3 C-2.34 3 -1.68 3 -1 3 C-0.67 2.01 -0.34 1.02 0 0 Z " fill="#11151C" transform="translate(515,190)"/>
<path d="M0 0 C0.66 0 1.32 0 2 0 C2.33 11.22 2.66 22.44 3 34 C3.99 32.35 4.98 30.7 6 29 C6.66 29 7.32 29 8 29 C7.67 29.99 7.34 30.98 7 32 C6.84586124 34.87438548 6.74252715 37.72898986 6.68359375 40.60546875 C6.66281265 41.44467361 6.64203156 42.28387848 6.62062073 43.14851379 C6.55525982 45.82809294 6.49630286 48.50776969 6.4375 51.1875 C6.39430198 53.00456737 6.35068727 54.82162488 6.30664062 56.63867188 C6.1995922 61.09234799 6.09828681 65.54612226 6 70 C3.03 70.495 3.03 70.495 0 71 C-0.14494359 65.57810729 -0.28723076 60.15615308 -0.42724609 54.73413086 C-0.47505053 52.89654746 -0.52353245 51.05898154 -0.57275391 49.22143555 C-1.37106377 19.36627578 -1.37106377 19.36627578 -0.5 7.0625 C-0.45230469 6.36705078 -0.40460938 5.67160156 -0.35546875 4.95507812 C-0.2415368 3.30306478 -0.1215275 1.65147196 0 0 Z " fill="#726DDF" transform="translate(147,182)"/>
<path d="M0 0 C0.66 0 1.32 0 2 0 C2 10.23 2 20.46 2 31 C-1.3 31 -4.6 31 -8 31 C-8 21.43 -8 11.86 -8 2 C-7.01 2.495 -7.01 2.495 -6 3 C-5.67 2.34 -5.34 1.68 -5 1 C-3.35 1.33 -1.7 1.66 0 2 C0 1.34 0 0.68 0 0 Z " fill="#10141A" transform="translate(326,195)"/>
<path d="M0 0 C3.91792583 2.29161699 5.63742733 4.82330547 7.3125 8.9375 C7.76660156 12.66967773 7.76660156 12.66967773 7.703125 16.62109375 C7.69746521 17.32146255 7.69180542 18.02183136 7.68597412 18.74342346 C7.6637922 20.95467945 7.61363806 23.16424373 7.5625 25.375 C7.54241115 26.88474203 7.52416458 28.39450975 7.5078125 29.90429688 C7.46398947 33.58256999 7.39509341 37.25986956 7.3125 40.9375 C6.9825 40.9375 6.6525 40.9375 6.3125 40.9375 C6.3125 30.7075 6.3125 20.4775 6.3125 9.9375 C5.3225 11.2575 4.3325 12.5775 3.3125 13.9375 C2.9825 13.2775 2.6525 12.6175 2.3125 11.9375 C-0.80535113 12.58394661 -0.80535113 12.58394661 -1.6875 14.9375 C-2.0175 14.6075 -2.3475 14.2775 -2.6875 13.9375 C-3.0175 22.5175 -3.3475 31.0975 -3.6875 39.9375 C-4.0175 39.9375 -4.3475 39.9375 -4.6875 39.9375 C-4.71255615 39.11024414 -4.7376123 38.28298828 -4.76342773 37.43066406 C-4.87946349 33.68278808 -5.002156 29.93515875 -5.125 26.1875 C-5.16431641 24.88554687 -5.20363281 23.58359375 -5.24414062 22.2421875 C-5.28603516 20.99179688 -5.32792969 19.74140625 -5.37109375 18.453125 C-5.40775146 17.30102539 -5.44440918 16.14892578 -5.48217773 14.96191406 C-5.65202174 12.46009776 -5.96718475 10.32658832 -6.6875 7.9375 C-7.38617188 7.94910156 -8.08484375 7.96070313 -8.8046875 7.97265625 C-9.71476562 7.98167969 -10.62484375 7.99070313 -11.5625 8 C-12.91988281 8.01740234 -12.91988281 8.01740234 -14.3046875 8.03515625 C-16.6875 7.9375 -16.6875 7.9375 -18.6875 6.9375 C-18.5 5.125 -18.5 5.125 -17.6875 2.9375 C-11.65588946 -1.23823038 -7.19896131 -2.07427699 0 0 Z " fill="#52555B" transform="translate(321.6875,185.0625)"/>
<path d="M0 0 C0.66 0.99 1.32 1.98 2 3 C2.99 3.33 3.98 3.66 5 4 C1.25424117 8.31329805 -1.52711408 9.60690177 -7 11 C-10.12452867 12.89116209 -10.82421252 13.47263757 -12 17 C-6.39 17 -0.78 17 5 17 C5 17.33 5 17.66 5 18 C-3.415 18.495 -3.415 18.495 -12 19 C-12.33 19.66 -12.66 20.32 -13 21 C-15.5625 21.625 -15.5625 21.625 -18 22 C-18 21.34 -18 20.68 -18 20 C-18.66 20 -19.32 20 -20 20 C-20.80951152 13.84771244 -18.3815498 8.98693203 -15 4 C-10.60689954 -0.17984316 -5.77371522 -0.68501706 0 0 Z M-18 18 C-17 20 -17 20 -17 20 Z " fill="#1A1E24" transform="translate(467,184)"/>
<path d="M0 0 C4.87408789 0.11285876 8.12749772 0.78406112 12.3125 3.3125 C13.8125 5.875 13.8125 5.875 14.3125 8.3125 C13.9825 8.9725 13.6525 9.6325 13.3125 10.3125 C10.84303109 11.04666643 9.03380116 11.5120757 6.51953125 10.81640625 C3.68116251 10.16835392 1.21249816 10.34500014 -1.6875 10.5625 C-2.71875 10.62953125 -3.75 10.6965625 -4.8125 10.765625 C-7.89456233 11.35188686 -9.37451989 12.24416201 -11.6875 14.3125 C-13.0075 13.6525 -14.3275 12.9925 -15.6875 12.3125 C-15.125 9 -15.125 9 -13.6875 5.3125 C-10.1875 3.5 -10.1875 3.5 -6.6875 2.3125 C-4.21750317 -0.15749683 -3.40535184 0.0156448 0 0 Z " fill="#141A21" transform="translate(417.6875,169.6875)"/>
<path d="M0 0 C0.99 0 1.98 0 3 0 C3.12375 0.639375 3.2475 1.27875 3.375 1.9375 C3.684375 2.9584375 3.684375 2.9584375 4 4 C4.66 4.33 5.32 4.66 6 5 C5.34 5 4.68 5 4 5 C4 13.91 4 22.82 4 32 C1.36 32 -1.28 32 -4 32 C-4.05796132 27.89589245 -4.09358313 23.79188984 -4.125 19.6875 C-4.14175781 18.52025391 -4.15851563 17.35300781 -4.17578125 16.15039062 C-4.18222656 15.03212891 -4.18867188 13.91386719 -4.1953125 12.76171875 C-4.20578613 11.73006592 -4.21625977 10.69841309 -4.22705078 9.63549805 C-4 7 -4 7 -2 4 C-1.34 4 -0.68 4 0 4 C0 2.68 0 1.36 0 0 Z " fill="#0F141B" transform="translate(491,193)"/>
<path d="M0 0 C-0.66 1.65 -1.32 3.3 -2 5 C-0.35 5.33 1.3 5.66 3 6 C2.67 7.65 2.34 9.3 2 11 C0.9790625 10.01 0.9790625 10.01 -0.0625 9 C-3.64457375 6.56114128 -5.75519536 6.66707415 -10 7 C-10.64628298 10.35299291 -11.14728287 13.57976446 -11 17 C-9.34614767 18.34919532 -7.678298 19.68133728 -6 21 C-5.4582586 23.77371597 -5.31288326 26.42299646 -5.23828125 29.24609375 C-4.98068928 32.22318129 -4.36031152 34.34437478 -3 37 C-0.47627099 38.36078035 -0.47627099 38.36078035 2 39 C1.34 39.66 0.68 40.32 0 41 C-0.66 40.67 -1.32 40.34 -2 40 C-2 39.34 -2 38.68 -2 38 C-2.66 38 -3.32 38 -4 38 C-4.33 37.34 -4.66 36.68 -5 36 C-5.99 36.495 -5.99 36.495 -7 37 C-8.32 32.05 -9.64 27.1 -11 22 C-11.66 22.33 -12.32 22.66 -13 23 C-13 22.34 -13 21.68 -13 21 C-13.99 20.67 -14.98 20.34 -16 20 C-16.63178047 9.82131461 -16.63178047 9.82131461 -14.125 6.5625 C-13.42375 6.046875 -12.7225 5.53125 -12 5 C-11.67 4.278125 -11.34 3.55625 -11 2.8125 C-10 1 -10 1 -8.25 0.25 C-5.48552496 -0.05716389 -2.77898594 -0.06315877 0 0 Z " fill="#5481E1" transform="translate(128,176)"/>
<path d="M0 0 C3.37909451 -0.30719041 5.40357459 -0.34529892 8.375 1.375 C10.81875537 5.32260482 10.8392962 9.47082499 10 14 C8.640625 15.796875 8.640625 15.796875 7 17 C4.3125 17.1875 4.3125 17.1875 2 17 C2.02320313 17.60328125 2.04640625 18.2065625 2.0703125 18.828125 C2.09738281 20.02695313 2.09738281 20.02695313 2.125 21.25 C2.14820313 22.03890625 2.17140625 22.8278125 2.1953125 23.640625 C1.9828378 26.20731941 1.28654105 27.7916067 0 30 C-0.66 30 -1.32 30 -2 30 C-1.67 30.99 -1.34 31.98 -1 33 C-4.75 34.125 -4.75 34.125 -7 33 C-7.33 44.22 -7.66 55.44 -8 67 C-6.02 67 -4.04 67 -2 67 C-3.1875 68.5 -3.1875 68.5 -5 70 C-7.61328125 70.09375 -7.61328125 70.09375 -10 70 C-10.14861989 64.82231153 -10.25734045 59.64587099 -10.32958984 54.46655273 C-10.35971388 52.70591601 -10.40062296 50.94542878 -10.45263672 49.18530273 C-10.52565267 46.65050374 -10.55949741 44.11769201 -10.5859375 41.58203125 C-10.61690521 40.79850784 -10.64787292 40.01498444 -10.67977905 39.2077179 C-10.68305244 33.8598438 -10.68305244 33.8598438 -8.69464111 31.35678101 C-4.82439048 28 -4.82439048 28 -2 28 C-1.92523438 27.16855469 -1.85046875 26.33710938 -1.7734375 25.48046875 C-1.37820914 22.21402261 -0.92031889 19.16090833 0 16 C2.88996287 13.83252785 4.41792333 13 8 13 C7.80777188 8.93565726 7.80777188 8.93565726 7 5 C4.66209929 3.04664818 4.66209929 3.04664818 2 2 C1.34 1.34 0.68 0.68 0 0 Z " fill="#7066CE" transform="translate(167,181)"/>
<path d="M0 0 C9.80989656 -0.60889013 9.80989656 -0.60889013 13.6875 1.375 C15.7160713 5.4321426 15.63904492 9.54897782 15 14 C14.01 15.485 14.01 15.485 13 17 C12.34 17 11.68 17 11 17 C10.67 17.99 10.34 18.98 10 20 C9.34 20 8.68 20 8 20 C8 18.68 8 17.36 8 16 C11.21428571 13 11.21428571 13 14 13 C13.75834074 8.81123944 13.58581114 6.63330934 10.6875 3.5 C8.20334837 1.81223593 8.20334837 1.81223593 5.875 2.0625 C3.60482981 3.1975851 2.46973825 3.90037392 1 6 C0.26958147 9.61023099 0.26958147 9.61023099 0 13 C0.66 13 1.32 13 2 13 C3.60371399 14.05415344 3.60371399 14.05415344 5 16 C5.36076355 19.17008972 5.36076355 19.17008972 5.34057617 23.13354492 C5.34101425 23.85574722 5.34145233 24.57794952 5.34190369 25.32203674 C5.33981414 27.70845605 5.31647613 30.09417223 5.29296875 32.48046875 C5.28737336 34.13527543 5.283103 35.79008708 5.28010559 37.44490051 C5.26865224 41.79993414 5.23918098 46.15466751 5.20599365 50.50958252 C5.17530326 54.95361265 5.16160247 59.39769131 5.14648438 63.84179688 C5.11431162 72.56133569 5.06310952 81.28063049 5 90 C3.35 90 1.7 90 0 90 C1.98 89.505 1.98 89.505 4 89 C3.98513107 79.81152586 3.94356536 70.62367347 3.86790943 61.43549728 C3.83361792 57.1690035 3.80852617 52.90286859 3.80444336 48.63623047 C3.80016491 44.51860997 3.77174122 40.40179931 3.72656822 36.28443146 C3.71357846 34.71361254 3.70929081 33.14269677 3.71384621 31.57183075 C3.7187423 29.37089097 3.69271102 27.17232731 3.65942383 24.97167969 C3.65276199 23.71925476 3.64610016 22.46682983 3.63923645 21.17645264 C2.82731692 17.14191434 1.31945453 16.26392458 -2 14 C-2.55859375 11.81640625 -2.55859375 11.81640625 -2.4375 9.5625 C-2.41558594 8.82128906 -2.39367187 8.08007812 -2.37109375 7.31640625 C-1.94718037 4.67029433 -1.07475349 2.44733023 0 0 Z " fill="#929EE8" transform="translate(139,162)"/>
<path d="M0 0 C4.90491297 1.12112296 6.55084907 3.80550453 9.08203125 7.83203125 C10.15382088 10.36327911 10.16626805 12.27795455 10 15 C6.2927308 15.28323788 2.69714999 15.45528702 -1 15 C-2.9375 12.625 -2.9375 12.625 -4 10 C-8.13473968 7.37533916 -12.24947953 7.31452221 -17 8 C-19.61338514 9.09685873 -21.63873329 10.39232905 -24 12 C-23.6875 10.125 -23.6875 10.125 -23 8 C-17.24161338 4.16107558 -8.3938463 4.46256329 -1.625 5.4375 C-0.75875 5.623125 0.1075 5.80875 1 6 C0.67 4.02 0.34 2.04 0 0 Z " fill="#2F3138" transform="translate(430,174)"/>
<path d="M0 0 C0.66 0.33 1.32 0.66 2 1 C-2 7 -2 7 -3.5625 9.3125 C-5.13382217 12.25018928 -5.6174216 14.7098258 -6 18 C-5.34 18 -4.68 18 -4 18 C-4 18.66 -4 19.32 -4 20 C-2.68 19.67 -1.36 19.34 0 19 C-0.350625 19.598125 -0.70125 20.19625 -1.0625 20.8125 C-2.33304698 23.10813214 -2.33304698 23.10813214 -1 26 C-0.34 26.33 0.32 26.66 1 27 C1 26.34 1 25.68 1 25 C1.66 25 2.32 25 3 25 C4.625 27.5 4.625 27.5 6 30 C4.35 29.67 2.7 29.34 1 29 C1 29.99 1 30.98 1 32 C-0.485 32.495 -0.485 32.495 -2 33 C-2 33.99 -2 34.98 -2 36 C-2.66 36 -3.32 36 -4 36 C-8.00614877 28.49080021 -10.56424379 21.91692217 -8.28125 13.28125 C-6.40532017 7.6534605 -4.6464474 3.74297152 0 0 Z " fill="#34373C" transform="translate(453,186)"/>
<path d="M0 0 C4.62 0 9.24 0 14 0 C14.33 0.99 14.66 1.98 15 3 C14.01 3.33 13.02 3.66 12 4 C12 4.66 12 5.32 12 6 C12.99 5.67 13.98 5.34 15 5 C15.33 5.33 15.66 5.66 16 6 C16.66 5.34 17.32 4.68 18 4 C17.67 5.98 17.34 7.96 17 10 C10.78675502 10.73030908 5.15901243 11.23180249 -1 10 C-2.31223496 6.06329512 -1.24296256 3.87511856 0 0 Z " fill="#10161C" transform="translate(409,216)"/>
<path d="M0 0 C2.64 0.33 5.28 0.66 8 1 C8.99 4.3 9.98 7.6 11 11 C10.34 11 9.68 11 9 11 C8.67 10.34 8.34 9.68 8 9 C4.37206002 10.86566488 4.37206002 10.86566488 2 14 C1.84655791 15.88472859 1.75040429 17.77427874 1.68359375 19.6640625 C1.64169922 20.78554687 1.59980469 21.90703125 1.55664062 23.0625 C1.51732422 24.238125 1.47800781 25.41375 1.4375 26.625 C1.39431641 27.80835938 1.35113281 28.99171875 1.30664062 30.2109375 C1.20032574 33.14050328 1.09829358 36.07015588 1 39 C3.64 39 6.28 39 9 39 C9 30.09 9 21.18 9 12 C9.33 12 9.66 12 10 12 C10 21.24 10 30.48 10 40 C6.7 40 3.4 40 0 40 C-1.64311459 36.71377082 -0.99748737 33.09273349 -0.87890625 29.4921875 C-0.85529526 28.65156769 -0.83168427 27.81094788 -0.80735779 26.94485474 C-0.73066362 24.2547338 -0.64666417 21.5648966 -0.5625 18.875 C-0.50928506 17.05339939 -0.45654463 15.23178486 -0.40429688 13.41015625 C-0.27504071 8.93992382 -0.13923154 4.4699324 0 0 Z " fill="#25282F" transform="translate(486,186)"/>
<path d="M0 0 C2.91856551 2.68607043 3.43131143 4.12845838 3.6875 8.125 C3.75066406 9.10210937 3.81382812 10.07921875 3.87890625 11.0859375 C4.14730057 17.54471683 4.08645252 23.61709144 3 30 C5.31 30.33 7.62 30.66 10 31 C10 22.75 10 14.5 10 6 C10.66 6.33 11.32 6.66 12 7 C12.02886984 10.97915159 12.04675406 14.95827653 12.0625 18.9375 C12.07087891 20.07380859 12.07925781 21.21011719 12.08789062 22.38085938 C12.09111328 23.46044922 12.09433594 24.54003906 12.09765625 25.65234375 C12.10289307 26.65257568 12.10812988 27.65280762 12.11352539 28.68334961 C12 31 12 31 11 32 C9.33570949 32.09823937 7.66718069 32.12973631 6 32.125 C4.63875 32.12886719 4.63875 32.12886719 3.25 32.1328125 C1 32 1 32 0 31 C-0.08790975 28.70848583 -0.10694038 26.41427476 -0.09765625 24.12109375 C-0.0962413 23.4344313 -0.09482635 22.74776886 -0.09336853 22.04029846 C-0.08775479 19.83932199 -0.07520007 17.63844591 -0.0625 15.4375 C-0.05748676 13.94856917 -0.05292355 12.45963676 -0.04882812 10.97070312 C-0.03778093 7.31376925 -0.02050713 3.65689442 0 0 Z " fill="#5D5E62" transform="translate(294,194)"/>
<path d="M0 0 C0.33 0 0.66 0 1 0 C1 23.76 1 47.52 1 72 C-0.32 72 -1.64 72 -3 72 C-3.33 71.01 -3.66 70.02 -4 69 C-3.34 69 -2.68 69 -2 69 C-2.00523682 68.09757568 -2.01047363 67.19515137 -2.01586914 66.26538086 C-2.03299758 62.89021149 -2.04549212 59.5150889 -2.05493164 56.13989258 C-2.05993417 54.68415596 -2.0667383 53.22842429 -2.07543945 51.77270508 C-2.087685 49.67007212 -2.09326923 47.56750609 -2.09765625 45.46484375 C-2.10289307 44.202771 -2.10812988 42.94069824 -2.11352539 41.64038086 C-2.00053752 38.01723632 -1.5259261 34.5834965 -1 31 C-0.85975455 28.51343642 -0.75590188 26.02462181 -0.68359375 23.53515625 C-0.66281265 22.85698349 -0.64203156 22.17881073 -0.62062073 21.48008728 C-0.55590691 19.34098169 -0.4966091 17.20176704 -0.4375 15.0625 C-0.39424016 13.60090076 -0.35062366 12.13931203 -0.30664062 10.67773438 C-0.20030749 7.1186016 -0.0988267 3.55935003 0 0 Z " fill="#5D5DD5" transform="translate(142,179)"/>
<path d="M0 0 C0.66 0 1.32 0 2 0 C1.67 0.99 1.34 1.98 1 3 C0.84586124 5.87438548 0.74252715 8.72898986 0.68359375 11.60546875 C0.66281265 12.44467361 0.64203156 13.28387848 0.62062073 14.14851379 C0.55525982 16.82809294 0.49630286 19.50776969 0.4375 22.1875 C0.39430198 24.00456737 0.35068727 25.82162488 0.30664062 27.63867188 C0.1995922 32.09234799 0.09828681 36.54612226 0 41 C-2.97 41.495 -2.97 41.495 -6 42 C-6.04946113 37.78248718 -6.08574827 33.56512832 -6.10986328 29.34741211 C-6.119917 27.91281188 -6.13356194 26.47823211 -6.15087891 25.04370117 C-6.17515549 22.98090562 -6.18648919 20.91838115 -6.1953125 18.85546875 C-6.20578613 17.61434326 -6.21625977 16.37321777 -6.22705078 15.09448242 C-6 12 -6 12 -4 9 C-4 18.9 -4 28.8 -4 39 C-3.34 39 -2.68 39 -2 39 C-2.01047363 37.92516357 -2.02094727 36.85032715 -2.03173828 35.74291992 C-2.06792779 31.75662565 -2.09089663 27.77034592 -2.10986328 23.78393555 C-2.11992326 22.05832477 -2.13357276 20.33273105 -2.15087891 18.60717773 C-2.17512754 16.1273986 -2.18648301 13.64784477 -2.1953125 11.16796875 C-2.20563507 10.39599655 -2.21595764 9.62402435 -2.22659302 8.82865906 C-2.22739422 5.00718524 -2.17242595 3.25863893 0 0 Z " fill="#5E52BD" transform="translate(153,211)"/>
<path d="M0 0 C4.87773605 0.45374289 7.52177888 1.52177888 11 5 C13.27896221 8.49440872 14.07498466 10.19016567 13.6875 14.375 C13.460625 15.24125 13.23375 16.1075 13 17 C12.67 17 12.34 17 12 17 C12 15.02 12 13.04 12 11 C11.34 11 10.68 11 10 11 C10 11.99 10 12.98 10 14 C7.03 13.505 7.03 13.505 4 13 C4 13.99 4 14.98 4 16 C-1.28 16 -6.56 16 -12 16 C-11.67 15.01 -11.34 14.02 -11 13 C-11 13.66 -11 14.32 -11 15 C-6.38 15 -1.76 15 3 15 C0.65964705 9.76993477 0.65964705 9.76993477 -3.1875 9.1875 C-4.115625 9.125625 -5.04375 9.06375 -6 9 C-6 8.67 -6 8.34 -6 8 C-5.05125 7.9175 -4.1025 7.835 -3.125 7.75 C0.10461791 7.34925077 0.10461791 7.34925077 1.375 4.9375 C1.58125 4.298125 1.7875 3.65875 2 3 C1.34 2.67 0.68 2.34 0 2 C0 1.34 0 0.68 0 0 Z " fill="#36393E" transform="translate(467,185)"/>
<path d="M0 0 C0.33 0 0.66 0 1 0 C1.33 2.97 1.66 5.94 2 9 C2.33 8.34 2.66 7.68 3 7 C3.66 7 4.32 7 5 7 C5 7.66 5 8.32 5 9 C5.99 9.33 6.98 9.66 8 10 C8 10.66 8 11.32 8 12 C8.66 12.33 9.32 12.66 10 13 C10.33 12.01 10.66 11.02 11 10 C10.46205942 17.17254113 6.34979556 22.5055214 2 28 C1.01 27.67 0.02 27.34 -1 27 C-0.0022242 24.00667261 0.7522025 23.05233685 3 21 C2.01 20.34 1.02 19.68 0 19 C-1.84173673 12.89595828 -0.84134405 6.20005849 0 0 Z " fill="#11171E" transform="translate(256,194)"/>
<path d="M0 0 C-0.34714471 2.56887084 -0.65822739 4.51043382 -2.15625 6.65625 C-4.83627639 8.60948958 -6.91817977 8.29296194 -10.1875 8.1875 C-11.27417969 8.16042969 -12.36085937 8.13335937 -13.48046875 8.10546875 C-14.72763672 8.05326172 -14.72763672 8.05326172 -16 8 C-15.67 7.34 -15.34 6.68 -15 6 C-14.34 6.33 -13.68 6.66 -13 7 C-13.33 6.34 -13.66 5.68 -14 5 C-14.99 5 -15.98 5 -17 5 C-16.49396008 2.83125748 -16.00016187 1.00032373 -15 -1 C-9.66353134 -2.77882289 -5.04741524 -2.44723163 0 0 Z M-23 6 C-21.02 6.495 -21.02 6.495 -19 7 C-19.33 7.99 -19.66 8.98 -20 10 C-21.32 9.67 -22.64 9.34 -24 9 C-23.67 8.01 -23.34 7.02 -23 6 Z " fill="#11171E" transform="translate(251,173)"/>
<path d="M0 0 C7.47240752 0.48999394 7.47240752 0.48999394 9.875 2.8125 C10.24625 3.534375 10.6175 4.25625 11 5 C11.3491748 5.55268555 11.69834961 6.10537109 12.05810547 6.67480469 C13.39234306 9.96855245 13.22345034 12.84525689 13.1953125 16.390625 C13.1924826 17.09523865 13.18965271 17.79985229 13.18673706 18.52581787 C13.17557801 20.7673876 13.15048193 23.00855186 13.125 25.25 C13.11496464 26.77343171 13.10583976 28.29686971 13.09765625 29.8203125 C13.07565291 33.54700586 13.04115272 37.27346333 13 41 C12.67 41 12.34 41 12 41 C12 30.77 12 20.54 12 10 C11.01 11.32 10.02 12.64 9 14 C8.67 13.34 8.34 12.68 8 12 C4.88214887 12.64644661 4.88214887 12.64644661 4 15 C3.566875 13.2984375 3.566875 13.2984375 3.125 11.5625 C2.75375 10.386875 2.3825 9.21125 2 8 C1.34 7.67 0.68 7.34 0 7 C0.66 5.68 1.32 4.36 2 3 C1.34 2.67 0.68 2.34 0 2 C0 1.34 0 0.68 0 0 Z " fill="#46494F" transform="translate(316,185)"/>
<path d="M0 0 C0.66 0.33 1.32 0.66 2 1 C1.01 2.485 1.01 2.485 0 4 C-3.125 4.1875 -3.125 4.1875 -6 4 C-6.33 6.31 -6.66 8.62 -7 11 C-6.01 11.66 -5.02 12.32 -4 13 C-4.33 14.98 -4.66 16.96 -5 19 C-5.66 18.34 -6.32 17.68 -7 17 C-7.763125 17.33 -8.52625 17.66 -9.3125 18 C-12 19 -12 19 -15 19 C-15.33 18.34 -15.66 17.68 -16 17 C-16.33 18.32 -16.66 19.64 -17 21 C-17.47516371 15.1792445 -16.61756236 11.49115327 -13 7 C-9.00321134 3.80256907 -4.77810843 1.74584731 0 0 Z " fill="#1E2228" transform="translate(410,171)"/>
<path d="M0 0 C3.80993655 0.05472081 3.80993655 0.05472081 6.1875 2 C7.39307437 4.97375011 7.27380448 6.32560836 6.125 9.3125 C4.4375 11.1875 4.4375 11.1875 2.125 12.3125 C-1 12.1875 -1 12.1875 -3.875 11.3125 C-5.875 8.3125 -5.875 8.3125 -5.5625 4.6875 C-4.68459611 0.37779001 -4.68459611 0.37779001 0 0 Z " fill="#424349" transform="translate(380.875,169.6875)"/>
<path d="M0 0 C0.33 0 0.66 0 1 0 C1.33 3.96 1.66 7.92 2 12 C2.66 12 3.32 12 4 12 C4.33 11.01 4.66 10.02 5 9 C5.66 9.33 6.32 9.66 7 10 C7.33 7.03 7.66 4.06 8 1 C8.33 1 8.66 1 9 1 C9.24875561 3.26877104 9.47339246 5.54019735 9.6875 7.8125 C9.81511719 9.07707031 9.94273437 10.34164062 10.07421875 11.64453125 C10 15 10 15 8.51953125 16.94921875 C8.01808594 17.29597656 7.51664063 17.64273438 7 18 C7.66 18 8.32 18 9 18 C8.38722388 20.96175123 7.74627478 22.38058783 6 25 C3.5625 24.25 3.5625 24.25 1 23 C-0.03913591 20.14984299 -0.11800633 17.46493638 -0.09765625 14.453125 C-0.09443359 13.60878906 -0.09121094 12.76445312 -0.08789062 11.89453125 C-0.07951172 11.02183594 -0.07113281 10.14914063 -0.0625 9.25 C-0.05798828 8.36183594 -0.05347656 7.47367188 -0.04882812 6.55859375 C-0.037074 4.37232671 -0.02064249 2.18619821 0 0 Z " fill="#0F1218" transform="translate(218,191)"/>
<path d="M0 0 C2.05078125 0.03255208 4.1015625 0.06510417 6.15234375 0.09765625 C5.49234375 0.75765625 4.83234375 1.41765625 4.15234375 2.09765625 C2.83234375 2.09765625 1.51234375 2.09765625 0.15234375 2.09765625 C0.81234375 2.75765625 1.47234375 3.41765625 2.15234375 4.09765625 C2.77734375 6.22265625 2.77734375 6.22265625 3.15234375 8.09765625 C4.47234375 8.42765625 5.79234375 8.75765625 7.15234375 9.09765625 C6.03085937 9.15373047 6.03085937 9.15373047 4.88671875 9.2109375 C3.901875 9.27667969 2.91703125 9.34242188 1.90234375 9.41015625 C0.9278125 9.46816406 -0.04671875 9.52617187 -1.05078125 9.5859375 C-4.10107236 10.14402149 -5.55476901 11.06135401 -7.84765625 13.09765625 C-9.16765625 12.43765625 -10.48765625 11.77765625 -11.84765625 11.09765625 C-11.28515625 7.78515625 -11.28515625 7.78515625 -9.84765625 4.09765625 C-7.57104717 2.5888658 -5.48119429 1.95954143 -2.84765625 1.09765625 C-1.84765625 0.09765625 -1.84765625 0.09765625 0 0 Z " fill="#0F151B" transform="translate(413.84765625,170.90234375)"/>
<path d="M0 0 C0 0.66 0 1.32 0 2 C-1.05058594 2.09796875 -2.10117188 2.1959375 -3.18359375 2.296875 C-13.56376077 3.35543829 -13.56376077 3.35543829 -23.203125 7.1953125 C-25 8 -25 8 -29 8 C-29.268125 8.61875 -29.53625 9.2375 -29.8125 9.875 C-31 12 -31 12 -34 14 C-34.66 13.67 -35.32 13.34 -36 13 C-36.33 13.66 -36.66 14.32 -37 15 C-38.65 15 -40.3 15 -42 15 C-30.64718247 2.83043301 -16.19871955 -0.78804582 0 0 Z " fill="#5A89DD" transform="translate(152,143)"/>
<path d="M0 0 C0.33 0 0.66 0 1 0 C1 11.55 1 23.1 1 35 C3.31 35 5.62 35 8 35 C8 35.33 8 35.66 8 36 C4.7 36 1.4 36 -2 36 C-2.04936883 31.19451403 -2.08570443 26.38917506 -2.10986328 21.58349609 C-2.11993254 19.94805328 -2.13358881 18.31262851 -2.15087891 16.67724609 C-2.17508705 14.3290563 -2.18647357 11.98110412 -2.1953125 9.6328125 C-2.21079636 8.53273361 -2.21079636 8.53273361 -2.22659302 7.41043091 C-2.22699368 5.60537303 -2.12212755 3.8009217 -2 2 C-1.34 1.34 -0.68 0.68 0 0 Z " fill="#55565A" transform="translate(335,189)"/>
<path d="M0 0 C3.96 1.98 3.96 1.98 8 4 C8 2.68 8 1.36 8 0 C8.66 0 9.32 0 10 0 C10.19493195 2.27020744 10.38070418 4.54120289 10.5625 6.8125 C10.66691406 8.07707031 10.77132813 9.34164062 10.87890625 10.64453125 C11 14 11 14 10 17 C8.68 16.34 7.36 15.68 6 15 C6.33 14.67 6.66 14.34 7 14 C6.34 13.67 5.68 13.34 5 13 C5 12.34 5 11.68 5 11 C4.34 11 3.68 11 3 11 C2.34 12.32 1.68 13.64 1 15 C0.67 10.05 0.34 5.1 0 0 Z " fill="#0F141B" transform="translate(256,190)"/>
<path d="M0 0 C7.29595562 0.16213235 12.1820968 3.87646386 18 8 C18.94552734 8.62841797 18.94552734 8.62841797 19.91015625 9.26953125 C26.55519025 14.21796082 30.63924396 22.10351258 35 29 C34.67 29.66 34.34 30.32 34 31 C30.40722643 27.82177723 28.0161906 24.13422023 25.46484375 20.12109375 C23.67552424 17.5301591 21.61115802 15.56588705 19.3125 13.4375 C18 12 18 12 18 10 C15.36 10.33 12.72 10.66 10 11 C9.835 10.0925 9.67 9.185 9.5 8.25 C7.42038495 3.74416738 4.46472009 2.76512189 0 1 C0 0.67 0 0.34 0 0 Z " fill="#787DDF" transform="translate(160,146)"/>
<path d="M0 0 C0.99 0.33 1.98 0.66 3 1 C2.68466796 3.91682137 2.45209742 5.54790258 0.34375 7.65625 C-2.69017528 9.39570049 -4.77733109 9.3007392 -8.25 9.1875 C-9.86648438 9.14689453 -9.86648438 9.14689453 -11.515625 9.10546875 C-12.33546875 9.07066406 -13.1553125 9.03585938 -14 9 C-13.01 8.01 -12.02 7.02 -11 6 C-11.33 5.01 -11.66 4.02 -12 3 C-8.22228531 -0.77771469 -5.06243949 -0.32142473 0 0 Z " fill="#11141C" transform="translate(361,185)"/>
<path d="M0 0 C4.9384399 4.77913538 4.9384399 4.77913538 5.12939453 8.56616211 C5.13108643 10.15569702 5.13108643 10.15569702 5.1328125 11.77734375 C5.13474609 13.50694336 5.13474609 13.50694336 5.13671875 15.27148438 C5.13285156 16.48126953 5.12898437 17.69105469 5.125 18.9375 C5.12886719 20.14341797 5.13273438 21.34933594 5.13671875 22.59179688 C5.13542969 23.74615234 5.13414062 24.90050781 5.1328125 26.08984375 C5.13168457 27.15066162 5.13055664 28.21147949 5.12939453 29.30444336 C5 32 5 32 4 35 C2.35 34.67 0.7 34.34 -1 34 C0.485 33.505 0.485 33.505 2 33 C1.8609223 28.43726776 1.71256366 23.87488309 1.5625 19.3125 C1.52318359 18.01892578 1.48386719 16.72535156 1.44335938 15.39257812 C1.40146484 14.14541016 1.35957031 12.89824219 1.31640625 11.61328125 C1.27974854 10.46641846 1.24309082 9.31955566 1.20532227 8.13793945 C1.02159702 5.33006722 0.6300618 2.73774186 0 0 Z " fill="#7174DE" transform="translate(131,216)"/>
<path d="M0 0 C2 1 2 1 3 3 C-4.11389522 11.81548975 -4.11389522 11.81548975 -9 13 C-9 12.01 -9 11.02 -9 10 C-9.99 10 -10.98 10 -12 10 C-12.66 10 -13.32 10 -14 10 C-14 8 -14 8 -12 6 C-12 5.34 -12 4.68 -12 4 C-12.99 4.495 -12.99 4.495 -14 5 C-16.6723621 5.13415472 -19.32250488 5.04318541 -22 5 C-22 4.67 -22 4.34 -22 4 C-18.04 3.34 -14.08 2.68 -10 2 C-10 2.99 -10 3.98 -10 5 C-8.35 4.67 -6.7 4.34 -5 4 C-5 3.34 -5 2.68 -5 2 C-3.35 2 -1.7 2 0 2 C0 1.34 0 0.68 0 0 Z " fill="#343940" transform="translate(435,212)"/>
<path d="M0 0 C1.32 0.66 2.64 1.32 4 2 C3.67 2.66 3.34 3.32 3 4 C3.66 4 4.32 4 5 4 C4.67 5.65 4.34 7.3 4 9 C9.61 9 15.22 9 21 9 C21 9.33 21 9.66 21 10 C12.585 10.495 12.585 10.495 4 11 C3.67 11.66 3.34 12.32 3 13 C0.4375 13.625 0.4375 13.625 -2 14 C-2 13.34 -2 12.68 -2 12 C-2.66 12 -3.32 12 -4 12 C-4.50423019 6.70558305 -3.18923033 4.18586481 0 0 Z M-2 10 C-1 12 -1 12 -1 12 Z " fill="#131920" transform="translate(451,192)"/>
<path d="M0 0 C6.42857143 5.28571429 6.42857143 5.28571429 9 8 C8.360625 8.185625 7.72125 8.37125 7.0625 8.5625 C4.57873787 9.94246056 4.57873787 9.94246056 4.25 13.625 C4.1675 14.73875 4.085 15.8525 4 17 C-0.59306496 15.5140084 -3.43569245 13.14985318 -7 10 C-3.25 8 -3.25 8 -1 8 C-0.01 9.485 -0.01 9.485 1 11 C0.84402344 10.37351563 0.68804687 9.74703125 0.52734375 9.1015625 C0.23537109 7.87566406 0.23537109 7.87566406 -0.0625 6.625 C-0.35833984 5.40683594 -0.35833984 5.40683594 -0.66015625 4.1640625 C-1 2 -1 2 0 0 Z " fill="#393D42" transform="translate(404,208)"/>
<path d="M0 0 C1.48700668 2.97401336 1.00619932 5.94818926 0.87890625 9.1953125 C0.85529526 9.90275604 0.83168427 10.61019958 0.80735779 11.33908081 C0.73071166 13.60125755 0.64669188 15.86309273 0.5625 18.125 C0.50928023 19.6575353 0.45653982 21.19008734 0.40429688 22.72265625 C0.27509533 26.48198761 0.13927963 30.24102908 0 34 C1.98 34 3.96 34 6 34 C4.8125 35.5 4.8125 35.5 3 37 C1.35 37 -0.3 37 -2 37 C-2 25.12 -2 13.24 -2 1 C-1.34 0.67 -0.68 0.34 0 0 Z " fill="#5F48C0" transform="translate(159,214)"/>
<path d="M0 0 C1.32 0.33 2.64 0.66 4 1 C7 6.03571429 7 6.03571429 7 9 C7.639375 9.28875 8.27875 9.5775 8.9375 9.875 C11 11 11 11 12 13 C13.64363134 13.72159424 15.31050386 14.39351421 17 15 C17 15.99 17 16.98 17 18 C17.680625 18.2475 18.36125 18.495 19.0625 18.75 C22.56865083 20.24197908 25.71620368 22.06835511 29 24 C28.01 24.66 27.02 25.32 26 26 C18.99385719 22.13857682 12.490693 17.88856931 7 12 C7 11.34 7 10.68 7 10 C6.34 10 5.68 10 5 10 C3.35 6.7 1.7 3.4 0 0 Z " fill="#768BD6" transform="translate(99,223)"/>
<path d="M0 0 C3.3 0 6.6 0 10 0 C10.33 0.66 10.66 1.32 11 2 C11.99 2 12.98 2 14 2 C14 2.66 14 3.32 14 4 C15.0059419 6.68251172 15.62223548 7.77778558 18.125 9.25 C18.74375 9.4975 19.3625 9.745 20 10 C17.36 10.33 14.72 10.66 12 11 C10.9375 9.125 10.9375 9.125 10 7 C10.33 6.34 10.66 5.68 11 5 C10.34 5 9.68 5 9 5 C9 3.68 9 2.36 9 1 C6.36 1 3.72 1 1 1 C1 13.54 1 26.08 1 39 C0.67 39 0.34 39 0 39 C0 26.13 0 13.26 0 0 Z " fill="#86878B" transform="translate(271,185)"/>
<path d="M0 0 C5.28137429 0.51525603 8.57221156 2.25477117 13 5 C13 5.66 13 6.32 13 7 C13.99 7.33 14.98 7.66 16 8 C15.67 8.66 15.34 9.32 15 10 C13.68 9.34 12.36 8.68 11 8 C11 7.01 11 6.02 11 5 C10.01 5 9.02 5 8 5 C8.20625 5.61875 8.4125 6.2375 8.625 6.875 C8.74875 7.57625 8.8725 8.2775 9 9 C8.34 9.66 7.68 10.32 7 11 C6.30251417 12.31747324 5.63040043 13.64914193 5 15 C5 14.34 5 13.68 5 13 C-0.94 11.515 -0.94 11.515 -7 10 C-7 9.67 -7 9.34 -7 9 C-1.25 8.875 -1.25 8.875 1 10 C1.66 8.35 2.32 6.7 3 5 C3.66 5 4.32 5 5 5 C5 4.01 5 3.02 5 2 C3.35 1.67 1.7 1.34 0 1 C0 0.67 0 0.34 0 0 Z " fill="#515459" transform="translate(246,171)"/>
<path d="M0 0 C2.31 0 4.62 0 7 0 C7.09688221 5.44693314 7.12862175 10.63904667 6 16 C5.34 15.67 4.68 15.34 4 15 C3.67 15.33 3.34 15.66 3 16 C1.66666667 16.66666667 0.33333333 17.33333333 -1 18 C-1.99 18.66 -2.98 19.32 -4 20 C-6.1875 19.625 -6.1875 19.625 -8 19 C-7.505 17.515 -7.505 17.515 -7 16 C-6.01 15.67 -5.02 15.34 -4 15 C-2.77479736 11.99152582 -2.77479736 11.99152582 -2 9 C-1.34 9.66 -0.68 10.32 0 11 C0.66 10.67 1.32 10.34 2 10 C2.66 10.33 3.32 10.66 4 11 C4 10.34 4 9.68 4 9 C4.66 9 5.32 9 6 9 C6 6.36 6 3.72 6 1 C4.02 1 2.04 1 0 1 C0 0.67 0 0.34 0 0 Z " fill="#0F131B" transform="translate(432,198)"/>
<path d="M0 0 C0 0.66 0 1.32 0 2 C0.763125 2.28875 1.52625 2.5775 2.3125 2.875 C5 4 5 4 8 6 C4.80926781 7.0635774 4.06624043 6.89019883 1 6 C0.34 6 -0.32 6 -1 6 C-1.33 5.01 -1.66 4.02 -2 3 C-6.62 2.34 -11.24 1.68 -16 1 C-16.33 1.99 -16.66 2.98 -17 4 C-17.66 3.34 -18.32 2.68 -19 2 C-20.093125 2.45375 -21.18625 2.9075 -22.3125 3.375 C-22.92738281 3.63023437 -23.54226562 3.88546875 -24.17578125 4.1484375 C-26.26533932 5.06806692 -26.26533932 5.06806692 -29 7 C-29.99 6.01 -30.98 5.02 -32 4 C-21.27558245 -0.08820882 -11.38840999 -1.97107096 0 0 Z " fill="#617CE5" transform="translate(160,145)"/>
<path d="M0 0 C0.33 0.66 0.66 1.32 1 2 C1.66 2.33 2.32 2.66 3 3 C3.33 3.99 3.66 4.98 4 6 C4.66 5.67 5.32 5.34 6 5 C5.6875 6.9375 5.6875 6.9375 5 9 C4.01 9.33 3.02 9.66 2 10 C2 11.32 2 12.64 2 14 C0.35 14.33 -1.3 14.66 -3 15 C-3.66 13.35 -4.32 11.7 -5 10 C-4.34 9.34 -3.68 8.68 -3 8 C-2.65846063 6.33499557 -2.32550502 4.66821323 -2 3 C-1.34 2.01 -0.68 1.02 0 0 Z " fill="#161A21" transform="translate(254,208)"/>
<path d="M0 0 C2 3 2 3 1.875 6.0625 C1 9 1 9 -1.0625 10.375 C-1.701875 10.58125 -2.34125 10.7875 -3 11 C-3.42670076 14.48472283 -3.64789556 17.0186845 -1.6640625 20.0234375 C-0.16390788 21.74896747 1.36656784 23.40059768 3 25 C-0.9519815 25 -2.14648416 23.62823828 -5 21 C-6.23627719 17.29116842 -6.70302414 13.84773428 -6 10 C-3.5625 7.3125 -3.5625 7.3125 -1 5 C-0.12761142 2.32209104 -0.12761142 2.32209104 0 0 Z " fill="#586DDC" transform="translate(130,188)"/>
<path d="M0 0 C0.66 0 1.32 0 2 0 C1.22091417 5.70903879 -3.71492527 8.65295158 -8 12 C-11.41122958 14.02146938 -13.0697722 15 -17 15 C-17 14.34 -17 13.68 -17 13 C-16.34 13 -15.68 13 -15 13 C-14.34 11.02 -13.68 9.04 -13 7 C-11.96875 7.144375 -10.9375 7.28875 -9.875 7.4375 C-5.5737848 6.95187893 -5.25683089 6.65298136 -2.6875 3.5 C-2.21699219 2.8503125 -1.74648437 2.200625 -1.26171875 1.53125 C-0.84535156 1.0259375 -0.42898437 0.520625 0 0 Z " fill="#744DDA" transform="translate(183,233)"/>
<path d="M0 0 C3.63 0 7.26 0 11 0 C9.52307692 6.64615385 9.52307692 6.64615385 6.875 8.4375 C6.25625 8.623125 5.6375 8.80875 5 9 C5 9.66 5 10.32 5 11 C3.68 11.33 2.36 11.66 1 12 C1 10.68 1 9.36 1 8 C1.99 7.34 2.98 6.68 4 6 C3.72382467 4.05925139 3.72382467 4.05925139 3 2 C2.01 1.34 1.02 0.68 0 0 Z " fill="#3C3F43" transform="translate(470,213)"/>
<path d="M0 0 C1.8871875 0.0309375 1.8871875 0.0309375 3.8125 0.0625 C3.8125 0.3925 3.8125 0.7225 3.8125 1.0625 C1.5025 1.3925 -0.8075 1.7225 -3.1875 2.0625 C-3.1875 2.7225 -3.1875 3.3825 -3.1875 4.0625 C-3.785625 4.124375 -4.38375 4.18625 -5 4.25 C-8.05893458 5.3861757 -8.73791099 7.23580142 -10.1875 10.0625 C-12.85416667 9.39583333 -15.52083333 8.72916667 -18.1875 8.0625 C-18.1875 7.4025 -18.1875 6.7425 -18.1875 6.0625 C-16.41752526 5.24813132 -14.64648848 4.4360706 -12.875 3.625 C-11.88886719 3.17253906 -10.90273437 2.72007812 -9.88671875 2.25390625 C-6.40982216 0.71924133 -3.77170028 -0.06183115 0 0 Z " fill="#464A4F" transform="translate(242.1875,169.9375)"/>
<path d="M0 0 C1.4540625 0.61875 1.4540625 0.61875 2.9375 1.25 C3.9375 4.25 3.9375 4.25 3 6.4375 C2.649375 7.035625 2.29875 7.63375 1.9375 8.25 C-0.0425 8.25 -2.0225 8.25 -4.0625 8.25 C-6.1875 3.625 -6.1875 3.625 -5.0625 0.25 C-3.0625 -0.75 -3.0625 -0.75 0 0 Z " fill="#746CD8" transform="translate(169.0625,185.75)"/>
<path d="M0 0 C1.9609375 0.66796875 1.9609375 0.66796875 4 2 C4.5390625 4.42578125 4.5390625 4.42578125 4.625 7.3125 C4.76694595 11.31428399 5.15742472 14.4031921 7 18 C9.52372901 19.36078035 9.52372901 19.36078035 12 20 C11.34 20.66 10.68 21.32 10 22 C9.34 21.67 8.68 21.34 8 21 C8 20.34 8 19.68 8 19 C7.34 19 6.68 19 6 19 C5.67 18.34 5.34 17.68 5 17 C4.34 17.33 3.68 17.66 3 18 C1.14256832 11.88595404 -0.42765417 6.41481258 0 0 Z " fill="#748DDA" transform="translate(118,195)"/>
<path d="M0 0 C2.625 0.375 2.625 0.375 5 1 C5.6875 3.8125 5.6875 3.8125 6 7 C4.5625 8.875 4.5625 8.875 3 10 C0.525 9.01 0.525 9.01 -2 8 C-2.125 5.125 -2.125 5.125 -2 2 C-1.34 1.34 -0.68 0.68 0 0 Z " fill="#6D87D3" transform="translate(121,185)"/>
<path d="M0 0 C0.66 0 1.32 0 2 0 C1.91621094 1.02738281 1.83242187 2.05476562 1.74609375 3.11328125 C1.18664712 10.5396434 0.85538245 17.54910499 1.94140625 24.9609375 C1.96074219 25.63382813 1.98007813 26.30671875 2 27 C1.34 27.66 0.68 28.32 0 29 C-2.41535639 18.86412943 -2.73056758 10.09334801 0 0 Z " fill="#5985D4" transform="translate(95,185)"/>
<path d="M0 0 C2.97 0 5.94 0 9 0 C9.33 0.66 9.66 1.32 10 2 C10.33 1.67 10.66 1.34 11 1 C12.66617115 0.95936168 14.33388095 0.957279 16 1 C14.625 3.5 14.625 3.5 13 6 C12.34 6 11.68 6 11 6 C11 6.66 11 7.32 11 8 C13.97 8.33 16.94 8.66 20 9 C20 9.33 20 9.66 20 10 C17.36 10 14.72 10 12 10 C11.67 10.66 11.34 11.32 11 12 C8.96564469 8.27034861 8 6.33094958 8 2 C5.69 2 3.38 2 1 2 C0.67 1.34 0.34 0.68 0 0 Z " fill="#43464B" transform="translate(486,185)"/>
<path d="M0 0 C4.84436703 0.45063879 7.53993961 1.53993961 11 5 C11.8125 7.25 11.8125 7.25 12 9 C11.01 9 10.02 9 9 9 C8.34 7.68 7.68 6.36 7 5 C6.67 5.99 6.34 6.98 6 8 C4.68 8 3.36 8 2 8 C1.67 8.99 1.34 9.98 1 11 C-1.31 10.34 -3.62 9.68 -6 9 C-6 8.67 -6 8.34 -6 8 C-4.576875 7.87625 -4.576875 7.87625 -3.125 7.75 C0.10461791 7.34925077 0.10461791 7.34925077 1.375 4.9375 C1.58125 4.298125 1.7875 3.65875 2 3 C1.34 2.67 0.68 2.34 0 2 C0 1.34 0 0.68 0 0 Z " fill="#40444A" transform="translate(467,185)"/>
<path d="M0 0 C2.4375 0.6875 2.4375 0.6875 5 2 C6 4.4375 6 4.4375 6 7 C4.875 8.875 4.875 8.875 3 10 C0.3125 9.6875 0.3125 9.6875 -2 9 C-2.125 5.625 -2.125 5.625 -2 2 C-1.34 1.34 -0.68 0.68 0 0 Z " fill="#909FD8" transform="translate(144,166)"/>
<path d="M0 0 C0.66 0.33 1.32 0.66 2 1 C2.37890625 2.92578125 2.37890625 2.92578125 2.5625 5.3125 C2.80590173 8.31776628 3.1945856 11.0911893 4 14 C3.2575 13.525625 2.515 13.05125 1.75 12.5625 C-0.61050015 11.22130673 -2.36648477 10.487688 -5 10 C-5 8.35 -5 6.7 -5 5 C-4.01 4.67 -3.02 4.34 -2 4 C-0.79117904 1.99983534 -0.79117904 1.99983534 0 0 Z " fill="#11161E" transform="translate(402,206)"/>
<path d="M0 0 C1.27875 -0.061875 2.5575 -0.12375 3.875 -0.1875 C4.95394531 -0.23970703 4.95394531 -0.23970703 6.0546875 -0.29296875 C6.69664062 -0.19628906 7.33859375 -0.09960938 8 0 C10 3 10 3 9.75 5.5625 C9 8 9 8 7 10 C4.375 10.125 4.375 10.125 2 10 C2.66 7.03 3.32 4.06 4 1 C2.68 0.67 1.36 0.34 0 0 Z " fill="#0F1118" transform="translate(378,171)"/>
<path d="M0 0 C0.33 0 0.66 0 1 0 C1.10847564 4.44750127 0.98483442 8.65031466 0 13 C-2.0625 14.9375 -2.0625 14.9375 -4 16 C-4.66 15.67 -5.32 15.34 -6 15 C-6.33 15.99 -6.66 16.98 -7 18 C-6.31838037 11.35420864 -3.67759599 5.51639398 0 0 Z " fill="#5E91DA" transform="translate(101,170)"/>
<path d="M0 0 C2.97 0.495 2.97 0.495 6 1 C5.65285529 3.56887084 5.34177261 5.51043382 3.84375 7.65625 C1.16372361 9.60948958 -0.91817977 9.29296194 -4.1875 9.1875 C-5.27417969 9.16042969 -6.36085937 9.13335937 -7.48046875 9.10546875 C-8.72763672 9.05326172 -8.72763672 9.05326172 -10 9 C-9.67 8.34 -9.34 7.68 -9 7 C-6.35139573 6.40644386 -3.70802678 6.25790731 -1 6 C-1 4.68 -1 3.36 -1 2 C-0.67 1.34 -0.34 0.68 0 0 Z " fill="#0D1117" transform="translate(245,172)"/>
<path d="M0 0 C0.93092208 2.51862966 1.14010478 3.64238094 0.14453125 6.18359375 C-0.29503906 6.92738281 -0.73460937 7.67117187 -1.1875 8.4375 C-1.64898437 9.21867188 -2.11046875 9.99984375 -2.5859375 10.8046875 C-4.22815959 13.35421462 -6.00826492 15.71319306 -8 18 C-8.99 17.67 -9.98 17.34 -11 17 C-10 14 -10 14 -8.0625 12.125 C-5.8496343 10.12527214 -5.8496343 10.12527214 -5 7.375 C-4 5 -4 5 -1.875 3.6875 C-1.25625 3.460625 -0.6375 3.23375 0 3 C0 2.01 0 1.02 0 0 Z " fill="#44474A" transform="translate(266,204)"/>
<path d="M0 0 C0.33 0 0.66 0 1 0 C1.33 10.89 1.66 21.78 2 33 C4.64 33.33 7.28 33.66 10 34 C10 34.33 10 34.66 10 35 C6.7 35 3.4 35 0 35 C-1.0132933 30.88882685 -1.04062543 27.17188615 -0.87890625 22.94921875 C-0.85529526 22.29041214 -0.83168427 21.63160553 -0.80735779 20.95283508 C-0.73124327 18.86414178 -0.64699771 16.77586926 -0.5625 14.6875 C-0.50922687 13.26499403 -0.45648689 11.84246799 -0.40429688 10.41992188 C-0.27570006 6.94636091 -0.13981289 3.47312966 0 0 Z " fill="#202227" transform="translate(376,191)"/>
<path d="M0 0 C0.66 0 1.32 0 2 0 C4.67657423 8.36639868 6.44892232 16.17119438 6 25 C5.34 25.66 4.68 26.32 4 27 C3.66029235 24.50072231 3.32811968 22.00080405 3 19.5 C2.85691406 18.45585937 2.85691406 18.45585937 2.7109375 17.390625 C2.0838378 12.55299871 1.91210472 7.87818804 2 3 C1.34 3 0.68 3 0 3 C0 2.01 0 1.02 0 0 Z " fill="#9079CC" transform="translate(194,178)"/>
<path d="M0 0 C0 0.66 0 1.32 0 2 C-8.9886923 3.16165032 -17.96333446 4.27247184 -27 5 C-20.80175907 -1.19824093 -8.18565172 -0.39822089 0 0 Z " fill="#86A1DC" transform="translate(152,143)"/>
<path d="M0 0 C2.31 0.66 4.62 1.32 7 2 C7 3.65 7 5.3 7 7 C-0.75 7.125 -0.75 7.125 -3 6 C-2.67 5.01 -2.34 4.02 -2 3 C-1.34 3 -0.68 3 0 3 C0 2.01 0 1.02 0 0 Z " fill="#2D2F33" transform="translate(433,182)"/>
<path d="M0 0 C0.66 0.33 1.32 0.66 2 1 C1.01 2.485 1.01 2.485 0 4 C-3.125 4.1875 -3.125 4.1875 -6 4 C-6.33 6.97 -6.66 9.94 -7 13 C-7.99 12.67 -8.98 12.34 -10 12 C-10 10.68 -10 9.36 -10 8 C-10.99 8.33 -11.98 8.66 -13 9 C-13 8.34 -13 7.68 -13 7 C-8.91542367 3.9116618 -4.80879404 1.75705936 0 0 Z " fill="#3E4046" transform="translate(410,171)"/>
<path d="M0 0 C2.97 0 5.94 0 9 0 C8.67 1.65 8.34 3.3 8 5 C6.02 5.66 4.04 6.32 2 7 C1.67 6.01 1.34 5.02 1 4 C0.34 3.67 -0.32 3.34 -1 3 C-0.67 2.01 -0.34 1.02 0 0 Z " fill="#18191F" transform="translate(334,186)"/>
<path d="M0 0 C2.375 -0.1875 2.375 -0.1875 5 0 C7.15942819 3.23914229 7.27232978 4.24859733 7.25 8 C7.25515625 8.86625 7.2603125 9.7325 7.265625 10.625 C7 13 7 13 5 16 C4.34 16 3.68 16 3 16 C2.67 16.99 2.34 17.98 2 19 C1.34 19 0.68 19 0 19 C0 17.68 0 16.36 0 15 C3.21428571 12 3.21428571 12 6 12 C5.73781251 7.5428126 5.42288711 5.48477302 2.4375 2.0625 C1.633125 1.381875 0.82875 0.70125 0 0 Z " fill="#717DCC" transform="translate(147,163)"/>
<path d="M0 0 C1.8871875 0.061875 1.8871875 0.061875 3.8125 0.125 C3.1525 1.775 2.4925 3.425 1.8125 5.125 C2.4725 5.125 3.1325 5.125 3.8125 5.125 C3.8125 6.115 3.8125 7.105 3.8125 8.125 C1.5025 8.125 -0.8075 8.125 -3.1875 8.125 C-2.8575 6.475 -2.5275 4.825 -2.1875 3.125 C-3.8375 2.795 -5.4875 2.465 -7.1875 2.125 C-4.09861478 0.06574319 -3.47814073 -0.1140374 0 0 Z " fill="#2F343A" transform="translate(463.1875,183.875)"/>
<path d="M0 0 C0.66 0 1.32 0 2 0 C3.03590199 5.05002222 3.10251672 9.87416389 3 15 C-0.890625 13.21875 -0.890625 13.21875 -1.875 11.25 C-2.04523512 8.18576785 -1.0362491 5.86492399 0 3 C0 2.01 0 1.02 0 0 Z " fill="#7B49EF" transform="translate(195,189)"/>
<path d="M0 0 C0 0.33 0 0.66 0 1 C-1.051875 1.268125 -2.10375 1.53625 -3.1875 1.8125 C-6.93023779 2.81130362 -6.93023779 2.81130362 -9.6875 4.625 C-12 6 -12 6 -16 6 C-16 4.68 -16 3.36 -16 2 C-18.97 2 -21.94 2 -25 2 C-25 1.67 -25 1.34 -25 1 C-21.7 1 -18.4 1 -15 1 C-14.67 1.66 -14.34 2.32 -14 3 C-12.989375 2.505 -11.97875 2.01 -10.9375 1.5 C-7.22011812 -0.11592314 -4.06043343 -0.24859797 0 0 Z " fill="#56575B" transform="translate(359,184)"/>
<path d="M0 0 C2.31 0.33 4.62 0.66 7 1 C6.01 3.31 5.02 5.62 4 8 C3.67 7.34 3.34 6.68 3 6 C0.19521805 5.08514427 0.19521805 5.08514427 -3.0625 4.375 C-4.16722656 4.11460937 -5.27195313 3.85421875 -6.41015625 3.5859375 C-7.69212891 3.29589844 -7.69212891 3.29589844 -9 3 C-9 2.67 -9 2.34 -9 2 C-3.25 1.875 -3.25 1.875 -1 3 C-0.67 2.01 -0.34 1.02 0 0 Z " fill="#46494E" transform="translate(248,178)"/>
<path d="M0 0 C0.66 0 1.32 0 2 0 C1.85851011 1.6045556 1.71164314 3.20863767 1.5625 4.8125 C1.48128906 5.70582031 1.40007812 6.59914062 1.31640625 7.51953125 C1 10 1 10 0 13 C-0.66 13 -1.32 13 -2 13 C-2.33 14.32 -2.66 15.64 -3 17 C-3.33 15.35 -3.66 13.7 -4 12 C-3.34 11.67 -2.68 11.34 -2 11 C-2.04125 9.9275 -2.0825 8.855 -2.125 7.75 C-2.0114175 4.34252515 -1.78726636 2.79260369 0 0 Z " fill="#7C46EE" transform="translate(195,204)"/>
<path d="M0 0 C2 1 2 1 3 3 C1.35 4.98 -0.3 6.96 -2 9 C-2.33 8.34 -2.66 7.68 -3 7 C-5.01669827 5.86649466 -5.01669827 5.86649466 -7 5 C-6.34 4.34 -5.68 3.68 -5 3 C-5 2.67 -5 2.34 -5 2 C-3.35 2 -1.7 2 0 2 C0 1.34 0 0.68 0 0 Z " fill="#272B2F" transform="translate(435,212)"/>
<path d="M0 0 C-4.64982247 3.60811072 -8.7012552 3.36022182 -14.3125 3.1875 C-15.14845703 3.17396484 -15.98441406 3.16042969 -16.84570312 3.14648438 C-18.89741498 3.11131217 -20.94879275 3.05751048 -23 3 C-23 2.67 -23 2.34 -23 2 C-19.54315232 1.46896481 -16.08435738 0.95191093 -12.625 0.4375 C-11.64015625 0.28603516 -10.6553125 0.13457031 -9.640625 -0.02148438 C-8.22910156 -0.2293457 -8.22910156 -0.2293457 -6.7890625 -0.44140625 C-5.91975098 -0.57232666 -5.05043945 -0.70324707 -4.15478516 -0.83813477 C-2 -1 -2 -1 0 0 Z " fill="#434348" transform="translate(256,223)"/>
<path d="M0 0 C0.66 0.33 1.32 0.66 2 1 C1.67 1.66 1.34 2.32 1 3 C1.66 3 2.32 3 3 3 C2.67 4.65 2.34 6.3 2 8 C7.61 8 13.22 8 19 8 C19 8.33 19 8.66 19 9 C12.73 9 6.46 9 0 9 C-0.66666667 6.33333333 -1.33333333 3.66666667 -2 1 C-1.34 0.67 -0.68 0.34 0 0 Z " fill="#0A0D12" transform="translate(453,193)"/>
<path d="M0 0 C0 0.33 0 0.66 0 1 C-1.98 1 -3.96 1 -6 1 C-6.33 1.99 -6.66 2.98 -7 4 C-7.66 3.34 -8.32 2.68 -9 2 C-10.093125 2.45375 -11.18625 2.9075 -12.3125 3.375 C-12.92738281 3.63023437 -13.54226562 3.88546875 -14.17578125 4.1484375 C-16.26533932 5.06806692 -16.26533932 5.06806692 -19 7 C-19.99 6.01 -20.98 5.02 -22 4 C-14.48666996 1.1082716 -8.07613852 -0.64323227 0 0 Z " fill="#4F85F5" transform="translate(150,145)"/>
<path d="M0 0 C2.27608233 3.4141235 2.16488977 4.15710661 1.6875 8.0625 C1.58824219 8.94035156 1.48898438 9.81820312 1.38671875 10.72265625 C1 13 1 13 0 15 C-0.99 15 -1.98 15 -3 15 C-2.66666667 12.66666667 -2.33333333 10.33333333 -2 8 C-1.835 6.72125 -1.67 5.4425 -1.5 4.125 C-1 1 -1 1 0 0 Z " fill="#498DF5" transform="translate(103,168)"/>
<path d="M0 0 C0.33 0.99 0.66 1.98 1 3 C0.01 3.33 -0.98 3.66 -2 4 C-0.68 4.33 0.64 4.66 2 5 C-3.625 9 -3.625 9 -7 9 C-6.5047783 5.33535945 -5.9791794 3.29167646 -3 1 C-2.01 0.67 -1.02 0.34 0 0 Z " fill="#31343C" transform="translate(237,177)"/>
<path d="M0 0 C0.66 1.32 1.32 2.64 2 4 C1.01 3.67 0.02 3.34 -1 3 C-1.2475 3.598125 -1.495 4.19625 -1.75 4.8125 C-3.16370012 7.28647521 -4.65055383 8.43370255 -7 10 C-7.33 8.02 -7.66 6.04 -8 4 C-2.25 2 -2.25 2 0 2 C0 1.34 0 0.68 0 0 Z " fill="#7F48F3" transform="translate(184,230)"/>
<path d="M0 0 C0.66 0 1.32 0 2 0 C2.48801743 7.19825708 2.48801743 7.19825708 0.25 10.875 C-1.82258425 12.83244068 -3.41810364 13.88117825 -6 15 C-6.66 15.66 -7.32 16.32 -8 17 C-7.67 15.35 -7.34 13.7 -7 12 C-5.02 11.34 -3.04 10.68 -1 10 C-0.67 6.7 -0.34 3.4 0 0 Z " fill="#7977CC" transform="translate(163,196)"/>
<path d="M0 0 C0.66 0 1.32 0 2 0 C2 0.99 2 1.98 2 3 C2.66 3 3.32 3 4 3 C3.38722388 5.96175123 2.74627478 7.38058783 1 10 C-0.32 9.34 -1.64 8.68 -3 8 C-3 6.68 -3 5.36 -3 4 C-2.01 3.67 -1.02 3.34 0 3 C0 2.01 0 1.02 0 0 Z " fill="#0F161A" transform="translate(223,206)"/>
<path d="M0 0 C0.99 0.99 1.98 1.98 3 3 C2.67 3.66 2.34 4.32 2 5 C-0.475 4.01 -0.475 4.01 -3 3 C-2.67 4.32 -2.34 5.64 -2 7 C-3.32 6.67 -4.64 6.34 -6 6 C-5.8125 4.125 -5.8125 4.125 -5 2 C-2.4375 0.75 -2.4375 0.75 0 0 Z M-8 6 C-7.34 6 -6.68 6 -6 6 C-6 6.99 -6 7.98 -6 9 C-5.34 9.33 -4.68 9.66 -4 10 C-4.99 10 -5.98 10 -7 10 C-7.33 8.68 -7.66 7.36 -8 6 Z " fill="#3B3D45" transform="translate(436,179)"/>
<path d="M0 0 C3.26954202 0.56371414 4.82575883 1.49962266 7 4 C5.68 3.67 4.36 3.34 3 3 C2.34 4.98 1.68 6.96 1 9 C-0.32 8.34 -1.64 7.68 -3 7 C-2.67 6.01 -2.34 5.02 -2 4 C-1.01 4 -0.02 4 1 4 C0.67 2.68 0.34 1.36 0 0 Z " fill="#0E1218" transform="translate(453,214)"/>
<path d="M0 0 C0.33 0 0.66 0 1 0 C1 1.65 1 3.3 1 5 C0.34 5 -0.32 5 -1 5 C-0.67 5.99 -0.34 6.98 0 8 C-4.455 8.495 -4.455 8.495 -9 9 C-4.375 4.125 -4.375 4.125 -1 3 C-0.67 2.01 -0.34 1.02 0 0 Z " fill="#7C6DDC" transform="translate(166,206)"/>
<path d="M0 0 C0.33 0 0.66 0 1 0 C1.33 2.97 1.66 5.94 2 9 C2.33 8.34 2.66 7.68 3 7 C3.66 7 4.32 7 5 7 C5 7.66 5 8.32 5 9 C5.99 9.33 6.98 9.66 8 10 C4.83210307 11.75994274 2.75635569 12.24872886 -1 13 C-0.67 8.71 -0.34 4.42 0 0 Z " fill="#131923" transform="translate(256,194)"/>
<path d="M0 0 C1.32 0.33 2.64 0.66 4 1 C3.34 1 2.68 1 2 1 C2.66 3.31 3.32 5.62 4 8 C1.03 8 -1.94 8 -5 8 C-4.360625 7.236875 -3.72125 6.47375 -3.0625 5.6875 C-0.85767219 3.11753287 -0.85767219 3.11753287 0 0 Z " fill="#0E1217" transform="translate(504,186)"/>
<path d="M0 0 C6.67353409 0.28398017 10.71077185 3.07805532 16 7 C13 8 13 8 9.86328125 6.56640625 C8.6739872 5.90864027 7.49053629 5.24022185 6.3125 4.5625 C5.70599609 4.22412109 5.09949219 3.88574219 4.47460938 3.53710938 C2.9779975 2.70042085 1.48830811 1.85137169 0 1 C0 0.67 0 0.34 0 0 Z " fill="#7982D0" transform="translate(160,146)"/>
<path d="M0 0 C1.32 0.33 2.64 0.66 4 1 C4.33 2.32 4.66 3.64 5 5 C4.01 5.495 4.01 5.495 3 6 C2.67 5.67 2.34 5.34 2 5 C1.01 5.495 1.01 5.495 0 6 C-1.54613014 5.91348369 -3.08909387 5.75997364 -4.625 5.5625 C-5.85089844 5.40974609 -5.85089844 5.40974609 -7.1015625 5.25390625 C-8.04128906 5.12822266 -8.04128906 5.12822266 -9 5 C-9 4.67 -9 4.34 -9 4 C-7.88625 3.896875 -6.7725 3.79375 -5.625 3.6875 C-4.42875 3.460625 -3.2325 3.23375 -2 3 C-1.34 2.01 -0.68 1.02 0 0 Z " fill="#0C1116" transform="translate(470,214)"/>
<path d="M0 0 C1.03348696 3.10046087 1.17755913 4.05610218 0 7 C-0.99 7.33 -1.98 7.66 -3 8 C-4.20882096 10.00016466 -4.20882096 10.00016466 -5 12 C-5.66 11.67 -6.32 11.34 -7 11 C-5.5140084 6.40693504 -3.14985318 3.56430755 0 0 Z " fill="#73A2E7" transform="translate(109,158)"/>
<path d="M0 0 C2.1875 1.875 2.1875 1.875 4 4 C4 4.66 4 5.32 4 6 C1.25 6.3125 1.25 6.3125 -2 6 C-4.375 3.5 -4.375 3.5 -6 1 C-3 0 -3 0 0 0 Z " fill="#282A31" transform="translate(403,216)"/>
<path d="M0 0 C1.32 0 2.64 0 4 0 C4.66 0.66 5.32 1.32 6 2 C6.99 2.33 7.98 2.66 9 3 C7.35 4.32 5.7 5.64 4 7 C4 6.01 4 5.02 4 4 C3.34 4 2.68 4 2 4 C2 3.34 2 2.68 2 2 C1.34 1.34 0.68 0.68 0 0 Z M4 8 C0.7 8.33 -2.6 8.66 -6 9 C-2.32146714 5.32146714 -0.65396927 5.67301537 4 8 Z " fill="#0B0F15" transform="translate(463,185)"/>
<path d="M0 0 C1.98 0.495 1.98 0.495 4 1 C4 1.99 4 2.98 4 4 C5.32 4.33 6.64 4.66 8 5 C5.92446352 5.5534764 4.15634036 6 2 6 C1.67 7.65 1.34 9.3 1 11 C0.34 11 -0.32 11 -1 11 C-1 9.35 -1 7.7 -1 6 C-0.34 5.67 0.32 5.34 1 5 C0.67 3.35 0.34 1.7 0 0 Z " fill="#0D1219" transform="translate(253,175)"/>
<path d="M0 0 C0.33 0 0.66 0 1 0 C1 7 1 7 0 9 C-0.66 9 -1.32 9 -2 9 C-2 8.34 -2 7.68 -2 7 C-2.99 6.67 -3.98 6.34 -5 6 C-5 4.35 -5 2.7 -5 1 C-4.01 1.33 -3.02 1.66 -2 2 C-1.34 1.34 -0.68 0.68 0 0 Z " fill="#547AE3" transform="translate(103,216)"/>
<path d="M0 0 C0 0.66 0 1.32 0 2 C-1.06927734 1.93039063 -1.06927734 1.93039063 -2.16015625 1.859375 C-8.78254156 1.60981001 -12.5768349 2.14352704 -18 6 C-17.6875 4.125 -17.6875 4.125 -17 2 C-13.63665155 -0.2422323 -11.90755033 -0.39324354 -7.9375 -0.6875 C-6.87402344 -0.77386719 -5.81054688 -0.86023438 -4.71484375 -0.94921875 C-2 -1 -2 -1 0 0 Z " fill="#5E6065" transform="translate(424,180)"/>
<path d="M0 0 C0.66 0.33 1.32 0.66 2 1 C0.66666667 3 -0.66666667 5 -2 7 C-2.495 7.886875 -2.99 8.77375 -3.5 9.6875 C-3.995 10.450625 -4.49 11.21375 -5 12 C-5.66 12 -6.32 12 -7 12 C-6.4685789 7.48292068 -4.70984317 4.61312423 -2 1 C-1.34 0.67 -0.68 0.34 0 0 Z " fill="#4C4F53" transform="translate(453,186)"/>
<path d="M0 0 C0.99 0.33 1.98 0.66 3 1 C3 1.99 3 2.98 3 4 C2.01 4.495 2.01 4.495 1 5 C-0.13350534 7.01669827 -0.13350534 7.01669827 -1 9 C-2.32 7.68 -3.64 6.36 -5 5 C-4.34 5 -3.68 5 -3 5 C-2.5359375 4.0409375 -2.5359375 4.0409375 -2.0625 3.0625 C-1 1 -1 1 0 0 Z " fill="#1C2129" transform="translate(511,189)"/>
<path d="M0 0 C0.33 0.66 0.66 1.32 1 2 C1.9075 1.79375 2.815 1.5875 3.75 1.375 C7.21546863 0.97513823 8.09470856 1.34524705 11 3 C4.78675502 3.73030908 -0.84098757 4.23180249 -7 3 C-7 2.67 -7 2.34 -7 2 C-4.69 1.34 -2.38 0.68 0 0 Z " fill="#39383D" transform="translate(415,223)"/>
<path d="M0 0 C0.33 0 0.66 0 1 0 C1.061875 1.051875 1.12375 2.10375 1.1875 3.1875 C2.148717 7.69782593 3.64211492 8.96971347 7 12 C8.3125 14.3125 8.3125 14.3125 9 16 C6.04582705 14.6284197 3.47288594 13.13179822 1 11 C-0.28317892 7.15046324 -0.06643637 4.05261865 0 0 Z " fill="#838FD5" transform="translate(124,198)"/>
<path d="M0 0 C0.66 0 1.32 0 2 0 C5.229316 6.70704093 5.02370454 10.89519555 3 18 C2.34 17.34 1.68 16.68 1 16 C1.33 15.34 1.66 14.68 2 14 C2.26548508 9.92922884 1.89678388 7.55646977 0 4 C0 2.68 0 1.36 0 0 Z " fill="#6060D5" transform="translate(159,188)"/>
<path d="M0 0 C-0.33 1.65 -0.66 3.3 -1 5 C-1.99 5.33 -2.98 5.66 -4 6 C-4.103125 5.38125 -4.20625 4.7625 -4.3125 4.125 C-4.87525373 1.63473516 -4.87525373 1.63473516 -8 0 C-5.13822943 -1.43088528 -3.06624227 -0.59991697 0 0 Z " fill="#181C24" transform="translate(364,186)"/>
<path d="M0 0 C0.66 0 1.32 0 2 0 C2.33 2.31 2.66 4.62 3 7 C0.03 6.505 0.03 6.505 -3 6 C-2.42655063 3.13275314 -2.1385485 2.1385485 0 0 Z " fill="#2C3137" transform="translate(306,186)"/>
<path d="M0 0 C0.33 0.66 0.66 1.32 1 2 C1.99 1.67 2.98 1.34 4 1 C4.33 2.32 4.66 3.64 5 5 C3.125 6.0625 3.125 6.0625 1 7 C0.34 6.67 -0.32 6.34 -1 6 C-1.33 6.99 -1.66 7.98 -2 9 C-1.51421457 5.87709365 -1.0013988 3.00419641 0 0 Z " fill="#70A3F1" transform="translate(96,179)"/>
<path d="M0 0 C-0.33 1.65 -0.66 3.3 -1 5 C-2.11375 4.071875 -2.11375 4.071875 -3.25 3.125 C-5.48801188 1.39562719 -7.43739987 0.13893339 -10 -1 C-6.06329512 -2.31223496 -3.87511856 -1.24296256 0 0 Z " fill="#7898DF" transform="translate(131,182)"/>
<path d="M0 0 C2.64 0 5.28 0 8 0 C8 0.66 8 1.32 8 2 C7.01 2 6.02 2 5 2 C4.67 3.65 4.34 5.3 4 7 C3.34 7 2.68 7 2 7 C2.33 5.68 2.66 4.36 3 3 C2.01 2.67 1.02 2.34 0 2 C0 1.34 0 0.68 0 0 Z " fill="#5182FA" transform="translate(134,160)"/>
<path d="M0 0 C4.30764815 1.56641751 8.06171464 3.68336156 12 6 C11.01 6.66 10.02 7.32 9 8 C7.68121422 7.23997083 6.3701316 6.46656347 5.0625 5.6875 C4.33160156 5.25824219 3.60070312 4.82898438 2.84765625 4.38671875 C1 3 1 3 0 0 Z " fill="#6D74D1" transform="translate(116,241)"/>
<path d="M0 0 C0.99 0 1.98 0 3 0 C3.33 1.98 3.66 3.96 4 6 C1 8 1 8 -3 8 C-3 6 -3 6 -1 3.875 C-0.34 3.25625 0.32 2.6375 1 2 C0.67 1.34 0.34 0.68 0 0 Z " fill="#1B1F26" transform="translate(500,185)"/>
<path d="M0 0 C0.66 0.66 1.32 1.32 2 2 C1.67 2.99 1.34 3.98 1 5 C1.66 5 2.32 5 3 5 C3 6.98 3 8.96 3 11 C2.67 10.34 2.34 9.68 2 9 C1.01 8.67 0.02 8.34 -1 8 C-1.125 2.25 -1.125 2.25 0 0 Z " fill="#6E51E8" transform="translate(193,176)"/>
<path d="M0 0 C1.98 0.495 1.98 0.495 4 1 C3.67 2.98 3.34 4.96 3 7 C1.68 7 0.36 7 -1 7 C-0.67 4.69 -0.34 2.38 0 0 Z " fill="#5877DF" transform="translate(144,169)"/>
<path d="M0 0 C0.66 0.33 1.32 0.66 2 1 C1.67 2.65 1.34 4.3 1 6 C0.01 5.67 -0.98 5.34 -2 5 C-2.33 5.66 -2.66 6.32 -3 7 C-4.65 7 -6.3 7 -8 7 C-5.4837822 4.39391727 -2.94865641 2.10618315 0 0 Z " fill="#79A4E6" transform="translate(118,151)"/>
<path d="M0 0 C2.475 0.99 2.475 0.99 5 2 C3.875 3.5 3.875 3.5 2 5 C-1.1875 5.1875 -1.1875 5.1875 -4 5 C-4.33 4.34 -4.66 3.68 -5 3 C-4.360625 2.87625 -3.72125 2.7525 -3.0625 2.625 C-2.0415625 2.315625 -2.0415625 2.315625 -1 2 C-0.67 1.34 -0.34 0.68 0 0 Z " fill="#0E1418" transform="translate(460,220)"/>
<path d="M0 0 C1.18681726 3.56045177 1.09689832 6.43808337 1.0625 10.1875 C1.05347656 11.45980469 1.04445313 12.73210937 1.03515625 14.04296875 C1.02355469 15.01878906 1.01195312 15.99460938 1 17 C0.01 16.67 -0.98 16.34 -2 16 C-2 11.05 -2 6.1 -2 1 C-1.34 0.67 -0.68 0.34 0 0 Z " fill="#72737B" transform="translate(403,190)"/>
<path d="M0 0 C-3.33333333 1.66666667 -6.66666667 3.33333333 -10 5 C-9.25 2.0625 -9.25 2.0625 -8 -1 C-4.73424099 -2.74173814 -3.07319048 -1.64589281 0 0 Z " fill="#4F87F8" transform="translate(126,178)"/>
<path d="M0 0 C0.99 0.99 1.98 1.98 3 3 C2.9375 5.5625 2.9375 5.5625 2 8 C0.02 8.99 0.02 8.99 -2 10 C-1.34 6.7 -0.68 3.4 0 0 Z " fill="#534E59" transform="translate(385,171)"/>
<path d="M0 0 C2 1.75 2 1.75 4 4 C4 5.32 4 6.64 4 8 C2.02 8.66 0.04 9.32 -2 10 C-1.34 6.7 -0.68 3.4 0 0 Z " fill="#576FED" transform="translate(154,168)"/>
<path d="M0 0 C1.98 0.66 3.96 1.32 6 2 C6.33 3.65 6.66 5.3 7 7 C4.50638429 5.79618552 2.31856917 4.54571278 0 3 C0 2.01 0 1.02 0 0 Z " fill="#7381DB" transform="translate(110,236)"/>
<path d="M0 0 C0.99 0.33 1.98 0.66 3 1 C2.67 2.98 2.34 4.96 2 7 C1.34 6.34 0.68 5.68 0 5 C-0.99 5.33 -1.98 5.66 -3 6 C-2.625 3.5625 -2.625 3.5625 -2 1 C-1.34 0.67 -0.68 0.34 0 0 Z " fill="#282C33" transform="translate(403,183)"/>
<path d="M0 0 C2.0625 1.3125 2.0625 1.3125 4 4 C4.05898893 7.72702755 3.58315738 11.32357303 3 15 C2.67 15 2.34 15 2 15 C1.93941406 14.33613281 1.87882813 13.67226562 1.81640625 12.98828125 C1.20136493 6.45091919 1.20136493 6.45091919 0 0 Z " fill="#6973D9" transform="translate(131,216)"/>
<path d="M0 0 C0.66 0 1.32 0 2 0 C1.56802365 4.7517398 0.67230705 6.92000054 -3 10 C-2.67 8.02 -2.34 6.04 -2 4 C-1.34 4 -0.68 4 0 4 C0 2.68 0 1.36 0 0 Z " fill="#714BC6" transform="translate(193,217)"/>
<path d="M0 0 C0.6875 1.625 0.6875 1.625 1 4 C-0.4375 7.25 -0.4375 7.25 -2 10 C-2.99 8.68 -3.98 7.36 -5 6 C-3.625 4.5 -3.625 4.5 -2 3 C-1.34 3 -0.68 3 0 3 C0 2.01 0 1.02 0 0 Z " fill="#525458" transform="translate(266,204)"/>
<path d="M0 0 C0.33 0 0.66 0 1 0 C1 2.31 1 4.62 1 7 C1.66 7 2.32 7 3 7 C3.66 8.32 4.32 9.64 5 11 C2 11 2 11 0.25 10 C-1.81442074 6.69692681 -0.67509603 3.74371434 0 0 Z " fill="#6C84CD" transform="translate(138,168)"/>
<path d="M0 0 C-0.33 1.65 -0.66 3.3 -1 5 C-2.98 5 -4.96 5 -7 5 C-6 2 -6 2 -4.0625 0.8125 C-2 0 -2 0 0 0 Z " fill="#4792FB" transform="translate(112,163)"/>
<path d="M0 0 C2 1 2 1 4 3 C3.67 3.99 3.34 4.98 3 6 C0.9375 6.6875 0.9375 6.6875 -1 7 C-1 3 -1 3 0 0 Z " fill="#557BF8" transform="translate(107,224)"/>
<path d="M0 0 C0.99 0 1.98 0 3 0 C3 0.99 3 1.98 3 3 C5.64 3.33 8.28 3.66 11 4 C11 4.33 11 4.66 11 5 C7.7 5 4.4 5 1 5 C0.67 3.35 0.34 1.7 0 0 Z " fill="#353539" transform="translate(375,221)"/>
<path d="M0 0 C1.65 0 3.3 0 5 0 C5.625 1.875 5.625 1.875 6 4 C5.34 4.66 4.68 5.32 4 6 C3.67 5.34 3.34 4.68 3 4 C2.01 4.495 2.01 4.495 1 5 C0.67 3.35 0.34 1.7 0 0 Z " fill="#628DF3" transform="translate(96,214)"/>
<path d="M0 0 C2 3 2 3 1.75 5.0625 C1 7 1 7 -1 9 C-3.125 8.625 -3.125 8.625 -5 8 C-4.360625 7.608125 -3.72125 7.21625 -3.0625 6.8125 C-0.56221181 4.61527704 -0.35049575 3.24208567 0 0 Z " fill="#7F93DA" transform="translate(130,188)"/>
<path d="M0 0 C3.2542015 2.83430453 4.5206753 4.68607774 5 9 C4.34 9 3.68 9 3 9 C3 8.34 3 7.68 3 7 C2.01 6.67 1.02 6.34 0 6 C0 4 0 2 0 0 Z " fill="#33373B" transform="translate(515,187)"/>
<path d="M0 0 C1.65 0 3.3 0 5 0 C4.34 1.32 3.68 2.64 3 4 C1.35 4 -0.3 4 -2 4 C-1.34 2.68 -0.68 1.36 0 0 Z " fill="#0F1319" transform="translate(285,186)"/>
<path d="M0 0 C0.99 0 1.98 0 3 0 C1.94958421 2.86477034 1.29875437 3.83913226 -1.4375 5.3125 C-4 6 -4 6 -7 5 C-6.030625 4.54625 -5.06125 4.0925 -4.0625 3.625 C-0.92920418 2.34213779 -0.92920418 2.34213779 0 0 Z " fill="#4B76DF" transform="translate(125,176)"/>
<path d="M0 0 C2.74277578 3.19990508 4.6302836 6.00499382 6 10 C3.54896452 9.01958581 2.23241214 8.3486182 0.75 6.125 C0 4 0 4 0 0 Z " fill="#8E83D3" transform="translate(189,167)"/>
<path d="M0 0 C0.66 0 1.32 0 2 0 C1.65120368 3.25543229 0.97866739 4.01873107 -1.5625 6.25 C-2.366875 6.8275 -3.17125 7.405 -4 8 C-4 4.06830895 -2.60580385 2.83572772 0 0 Z " fill="#8161D2" transform="translate(183,233)"/>
<path d="M0 0 C1.875 0.1875 1.875 0.1875 4 1 C5.25 3.5625 5.25 3.5625 6 6 C3.69 5.01 1.38 4.02 -1 3 C-0.67 2.01 -0.34 1.02 0 0 Z " fill="#4E5054" transform="translate(226,206)"/>
<path d="M0 0 C1.60379341 -0.05416188 3.20811406 -0.09286638 4.8125 -0.125 C5.70582031 -0.14820313 6.59914063 -0.17140625 7.51953125 -0.1953125 C10 0 10 0 13 2 C12.01 2 11.02 2 10 2 C9.67 2.66 9.34 3.32 9 4 C8.34 3.67 7.68 3.34 7 3 C7 2.34 7 1.68 7 1 C4.69 1 2.38 1 0 1 C0 0.67 0 0.34 0 0 Z " fill="#8F9093" transform="translate(413,170)"/>
<path d="M0 0 C0 0.66 0 1.32 0 2 C-0.66 2 -1.32 2 -2 2 C-2.33 3.65 -2.66 5.3 -3 7 C-3.99 6.01 -4.98 5.02 -6 4 C-5.67 3.01 -5.34 2.02 -5 1 C-3 0 -3 0 0 0 Z " fill="#5D77F8" transform="translate(158,161)"/>
<path d="M0 0 C0.99 0 1.98 0 3 0 C3.33 1.98 3.66 3.96 4 6 C3.01 6 2.02 6 1 6 C0.67 4.02 0.34 2.04 0 0 Z " fill="#5280F2" transform="translate(116,202)"/>
<path d="M0 0 C0.99 0 1.98 0 3 0 C3.185625 0.9590625 3.185625 0.9590625 3.375 1.9375 C3.684375 2.9584375 3.684375 2.9584375 4 4 C4.66 4.33 5.32 4.66 6 5 C4.35 5.33 2.7 5.66 1 6 C0.67 4.02 0.34 2.04 0 0 Z " fill="#1A1E25" transform="translate(491,193)"/>
<path d="M0 0 C0.66 0 1.32 0 2 0 C3.10844919 3.32534757 2.84454356 5.62182575 2 9 C-0.37783838 6.62216162 -0.59009208 5.27926335 -1 2 C-0.67 1.34 -0.34 0.68 0 0 Z " fill="#5072DC" transform="translate(131,184)"/>
<path d="M0 0 C3.65316671 1.24976756 4.78065836 1.67098753 7 5 C6.67 5.99 6.34 6.98 6 8 C5.38125 7.195625 4.7625 6.39125 4.125 5.5625 C2.25835959 2.96125481 2.25835959 2.96125481 0 2 C0 1.34 0 0.68 0 0 Z " fill="#6B64CE" transform="translate(182,161)"/>
<path d="M0 0 C0.28875 0.639375 0.5775 1.27875 0.875 1.9375 C1.82823451 4.15206079 1.82823451 4.15206079 4 5 C2.02 5.99 2.02 5.99 0 7 C-0.38133299 5.0085944 -0.71325582 3.00720923 -1 1 C-0.67 0.67 -0.34 0.34 0 0 Z M-3 4 C-2.01 4.495 -2.01 4.495 -1 5 C-1.99 5.495 -1.99 5.495 -3 6 C-3 5.34 -3 4.68 -3 4 Z " fill="#6866F8" transform="translate(180,159)"/>
<path d="M0 0 C0.66 0 1.32 0 2 0 C1.8125 1.875 1.8125 1.875 1 4 C-1.5625 5.25 -1.5625 5.25 -4 6 C-3.67 5.01 -3.34 4.02 -3 3 C-2.34 3 -1.68 3 -1 3 C-0.67 2.01 -0.34 1.02 0 0 Z " fill="#3E4145" transform="translate(430,219)"/>
<path d="M0 0 C0.33 0.99 0.66 1.98 1 3 C-2.93670488 4.31223496 -5.12488144 3.24296256 -9 2 C-9 1.67 -9 1.34 -9 1 C-2.25 0 -2.25 0 0 0 Z " fill="#0B0F16" transform="translate(423,216)"/>
<path d="M0 0 C0.33 0.99 0.66 1.98 1 3 C1.66 3 2.32 3 3 3 C3 2.34 3 1.68 3 1 C3.99 1 4.98 1 6 1 C5.67 1.99 5.34 2.98 5 4 C4.01 4 3.02 4 2 4 C1.67 5.32 1.34 6.64 1 8 C0.67 5.36 0.34 2.72 0 0 Z " fill="#45494E" transform="translate(218,206)"/>
<path d="M0 0 C2.31 0 4.62 0 7 0 C6.01 0.33 5.02 0.66 4 1 C2.79117904 3.00016466 2.79117904 3.00016466 2 5 C1.34 5 0.68 5 0 5 C0 3.35 0 1.7 0 0 Z " fill="#698FDC" transform="translate(114,182)"/>
<path d="M0 0 C0.66 0.33 1.32 0.66 2 1 C1.34 2.65 0.68 4.3 0 6 C-0.99 5.34 -1.98 4.68 -3 4 C-3 3.01 -3 2.02 -3 1 C-2.01 0.67 -1.02 0.34 0 0 Z " fill="#6E5CFA" transform="translate(187,168)"/>
<path d="M0 0 C3.465 1.485 3.465 1.485 7 3 C7 3.33 7 3.66 7 4 C5.02 4 3.04 4 1 4 C0.67 2.68 0.34 1.36 0 0 Z " fill="#121618" transform="translate(232,221)"/>
<path d="M0 0 C1.98 0 3.96 0 6 0 C6.66 1.65 7.32 3.3 8 5 C4.62496331 3.8141763 2.35277269 2.72426311 0 0 Z " fill="#616164" transform="translate(225,220)"/>
<path d="M0 0 C0.66 0 1.32 0 2 0 C2.33 0.99 2.66 1.98 3 3 C3.99 3.66 4.98 4.32 6 5 C4.02 5.33 2.04 5.66 0 6 C0 4.02 0 2.04 0 0 Z " fill="#0A0E11" transform="translate(417,200)"/>
<path d="M0 0 C0.33 0 0.66 0 1 0 C1.33 3.96 1.66 7.92 2 12 C1.01 12.33 0.02 12.66 -1 13 C-0.67 8.71 -0.34 4.42 0 0 Z " fill="#818085" transform="translate(256,194)"/>
<path d="M0 0 C1.43088528 2.86177057 0.59991697 4.93375773 0 8 C-0.99 7.67 -1.98 7.34 -3 7 C-2.25 2.25 -2.25 2.25 0 0 Z " fill="#5B76FD" transform="translate(158,164)"/>
</svg>
